<?xml version="1.0" encoding="UTF-8"?>
<svg id="Capa_2" data-name="Capa 2" xmlns="http://www.w3.org/2000/svg" viewBox="0 0 528.49 696.05">
  <defs>
    <style>
      .cls-1 {
        fill: #1d1d1b;
      }

      .cls-2 {
        fill: #ecdba5;
      }

      .cls-3 {
        fill: #e63240;
      }
    </style>
  </defs>
  <g id="Capa_1-2" data-name="Capa 1">
    <g>
      <path class="cls-1" d="M507.8,689.72c.29,1.4.35,2.53.18,3.4-1.53,3.12-6.28,3.16-9.28,2.75-4.35-.6-5.56-6.09-1.12-7.58,4.1-1.38,7.51-.9,10.22,1.44Z"/>
      <path class="cls-3" d="M519.35,371.49s.05,0,.07,0c.18.04.29.22.25.4-.74,3.25-1.86,6.55-3.37,9.9-3.31,7.36-7.7,15.41-13.15,24.16-2.5,4.02-5.78,6.95-8.11,10.95-.22.39-.32.36-.3-.09.19-3.94.18-7.94-.01-12.02-.04-1.01-.23-1.97-.56-2.86-.4-1.11-.65-2.23-.75-3.37,0-.04,0-.07-.02-.11-.03-.09,0-.16.09-.19.19-.06.24-.18.18-.37l-1.14-3.35c-.09-.27-.28-.42-.58-.45-.97-.06-1.94.29-2.89,1.07-5.01,4.12-10.39,8.79-16.08,12.22-3.49,2.1-6.91,4.49-10.53,6.45-14.36,7.82-28.84,12.64-43.41,14.45-8.72,1.09-18.42,1.2-29.11.34-1.76-.14-3.44-.23-5.07-.27-2.64-.06-5.4-.6-8.26-1.63-.47-.17-.69-.51-.63-1.01.22-2.04,1.18-3.65,2.87-4.81.5-.35,1.06-.51,1.69-.51,1.27,0,2.51.11,3.75.31,11.52,1.87,21.68,2.47,30.49,1.81,6.73-.5,14.52-1.97,23.37-4.41,5.8-1.59,11.9-4.45,17.68-6.66,3.59-1.37,7.53-3.31,11.81-5.83,5.91-3.48,11.86-7.62,17.82-12.41,1.53-1.22,2.71-2.54,3.57-3.96.13-.21.19-.45.16-.7-.27-2.95-1.77-5.13-4.48-6.54-3.14-1.63-6.2-3.27-9.2-4.94-1.87-1.04-3.41-2.51-5.32-3.42-.32-.15-.31-.26.04-.32,5.7-.91,11.37-1.46,17.01-1.64,9.53-.3,20.24-.37,32.11-.23Z"/>
      <path class="cls-2" d="M448.58,627.46s.01,0,.02,0c.09-.06.21-.03.27.06l3.04,4.95c.06.11.04.24-.06.32-4.92,3.7-9.99,6.94-15.22,9.74-3.56,1.91-6.04,4.32-9.4,6.46-3.12,1.99-5.76,4.14-9.18,5.83-2.23,1.1-3.96,3.19-5.91,4.78-8.15,6.56-16.31,12.18-24.47,16.85-1.42.82-3.2,1.33-5.33,1.53-5.71.56-11.44.72-17.17.49l-29.41-.76c-.57-.01-.89-.3-.97-.87-.07-.56-.16-1.15-.24-1.78-.07-.56.17-.85.74-.86l30.44-.35c5.48-.12,10.32-.39,14.52-.83,4.62-.49,7.42-2.78,11.16-5.27.97-.64,1.87-1.32,2.71-2.04,2.67-2.29,5.37-4.4,8.09-6.36,1.58-1.13,2.84-2.53,4.4-3.69,4.06-3.04,7.8-5.48,11.22-7.35,1.42-.77,2.68-1.66,3.77-2.68,2.14-1.98,4.65-3.26,6.99-5.07,3.05-2.38,6.53-4.12,9.58-6.38,3.55-2.65,7.07-4.19,10.44-6.71Z"/>
      <path class="cls-2" d="M411.17,567.94c.26.14.34.37.25.68-.04.19-.14.35-.29.47-3.76,3.37-7.8,6.33-12.1,8.91-1.25.75-3.01,1.21-3.96,1.86-14.27,9.68-29.2,18.43-43.73,27.71-.12.08-.28.04-.36-.08l-35.89-56.89c-.16-.24-.19-.51-.12-.8.74-2.71,1.48-5.44,1.89-8.22,4.45-30.59,8.86-60.91,13.25-90.96.06-.42.2-.45.42-.09.64,1.04,1.13,2.11,1.86,3.09,4.28,5.8,8.87,11.14,13.76,16.03,2.51,2.51,1.89,9.08,1.43,12.37,0,.04,0,.06,0,.1.04.13.17.22.31.18,1.72-.42,3.49-.19,5.32.69,3.81,1.85,8.11,4.35,10.17,8.21,1.87,3.52,3.65,7.11,5.33,10.76.6,1.32,1.3,2.58,2.09,3.77,4.76,7.27,10.04,14.89,15.81,22.87,2.52,3.48,4.7,6.76,6.55,9.84,2.09,3.48,4.23,7,6.43,10.55,1.2,1.93,3.5,1.04,3.6,4.04,0,.22-.06.39-.22.52-.04.04-.1.08-.16.11-.17.1-.23.24-.16.42.08.18.19.35.35.49.71-.16,1.34.14,1.87.91,2.35,3.41,4.51,6.94,6.47,10.6.32.61.27,1.22-.16,1.83Z"/>
      <path class="cls-1" d="M408.83,602.52c2.17.93,4.57,1.91,5.9,3.98,3.63,5.6,4.68,11.4,3.14,17.4-.78,3.04-3.01,4.91-6.14,2.98-1.02-.63-.81-1.93-.29-2.78,1.05-1.72,2.68-4.73,2.24-6.68-1.22-5.37-3.54-9.3-6.04-13.86-.16-.29-.09-.67.17-.89.29-.26.64-.3,1.03-.14Z"/>
      <path class="cls-2" d="M400.03,654.37s.04.03.05.04c.11.11.12.29,0,.4-.77.83-1.6,1.58-2.51,2.24-3.54,2.63-6.58,5-9.14,7.13-.35.3-.87.32-1.25.06-3.2-2.24-5.82-5.12-9.68-6.5-3.4-1.22-6.71-2.24-9.93-3.06-.41-.11-.43-.27-.06-.47.6-.34,1.17-.68,1.64-1.19,2.12-2.25,4.32-4.57,6.63-6.96,1.45-1.49,3.12-2.08,5-1.76,3.24.54,6.27,1.72,9.08,3.54,3.19,2.07,6.59,4.25,10.17,6.54Z"/>
      <path class="cls-3" d="M408.83,602.52c-.39-.17-.73-.12-1.03.14-.25.22-.32.6-.17.89,2.5,4.56,4.82,8.49,6.04,13.86.45,1.95-1.19,4.96-2.24,6.68-.52.86-.73,2.16.29,2.78,3.13,1.93,5.36.06,6.14-2.98,1.54-5.99.5-11.79-3.14-17.4-1.33-2.06-3.73-3.05-5.9-3.98ZM398.05,645.21c-4.23-3.01-9.09-5.39-13.64-7.88-.04-.02-.07-.05-.1-.09-.09-.14-.06-.32.07-.42.51-.35.92-.73,1.23-1.16,1.61-2.24,3.07-4.55,5.04-6.53,3.17-3.19,6.36-6.37,8.66-10.22,2.67-4.46,3.92-9.58,6.51-14.06.94-1.62,1.73-3.02,1.94-4.95.47-4.63,1.99-9.37,4.55-14.21.16-.29.32-.3.48-.01,1.43,2.4,3.06,4.71,4.42,7.18,1.96,3.6,4.18,7.05,6.68,10.36.46.61.99,1.1,1.57,1.47,3.76,2.43,7.88,5.02,10.17,9.04,1.96,3.41,3.17,6.66,3.63,9.75.57,3.76-8.41,8.38-11,10.15-4.62,3.16-10.09,4.32-14.66,7.42-3.06,2.07-5.89,4.2-8.48,6.39-1.86,1.58-5.44-1.06-7.07-2.22Z"/>
      <path class="cls-3" d="M379.84,667.62c-4,.42-7.55.64-10.67.66-8.63.06-17.73.16-27.28.28-1.24.01-1.47-.45-.68-1.42l.73-.89c.88-1.05,2.14-1.71,3.51-1.8,5.55-.36,10.76-1.13,15.64-2.31,3.91-.94,11.4-1.11,14.71,1.6,1.35,1.1,2.73,2.29,4.14,3.56.04.03.06.07.06.12.01.1-.06.19-.17.2Z"/>
      <path class="cls-2" d="M340.32,163.36c.05.03.1.07.13.12.11.17.06.38-.1.49-1.42.95-2.81,2.03-3.95,3.3-5.81,6.5-10.08,13.94-12.81,22.33-1.6,4.92-2.76,9.58-3.48,13.98-.69,4.2-1.14,9.28-1.35,15.25-.11,2.98-1.13,5.77-1.32,8.77-.4,6.26-.91,12.97-1.53,20.15-.45,5.23-.82,10.02-1.1,14.35-.54,8.32-1.15,16.58-1.83,24.81-.14,1.69-.1,3.35.12,4.97.47,3.51-.08,7.19-1.64,11.05-.67,1.66-2.04,2.97-2.92,4.63-2.19,4.09-5.2,7.04-9.04,8.84-2.22,1.05-5.52.75-8,.6-3.51-.21-6.68-1.37-9.49-3.49-.91-.68-1.61-1.63-2.55-2.27-.24-.16-.45-.12-.63.11l-2.95,3.91c-.16.21-.17.42-.04.65,1.98,3.22,4.92,5.32,8.84,6.28,3.43.85,6.67,1.98,10.13,2.67,1.94.39,3.89.8,5.87,1.23.22.05.3.18.23.39l-2.05,6.41c-.09.29-.27.42-.58.42-7.92-.04-16.79-1.7-23.17-6.53-8.03-6.07-14.3-13.64-18.81-22.71-1.76-3.55,1.6-5.76,2.3-8.85.99-4.42,2.4-8.72,4.21-12.91,2.66-6.13,3.99-12.3,6.07-18.51,2.27-6.76,4.37-13.5,6.29-20.24.45-1.58.71-3.86,1.24-5.75,1.54-5.46,3.12-10.76,4.35-16.39,1.32-6.1,3.29-12.15,5.89-18.17,1.12-2.59,1.09-6.75,1.37-9.58.05-.46.39-.85.84-.96l7.22-1.74c.53-.12.86-.63.76-1.16-.19-1.09-.42-2.17-.85-3.19-1.24-2.89-1.76-5.86-1.53-8.89.16-2.14-.58-4.63,0-6.55,1.09-3.58,1.76-7.23,2.63-10.94,1.4-6,2.82-11.9,4.28-17.71.01-.04.03-.06.04-.1.11-.19.35-.25.54-.14,12.52,7.14,25.32,14.15,38.39,21.06Z"/>
      <path class="cls-2" d="M335.43,386.42l5.88-5.67c.33-.31.76-.49,1.21-.5,1.55-.03,3.12-.14,4.71-.35,6.42-.83,10.9-6.3,14.75-11.02,3.73-4.58,8.14-8.89,13.23-12.94,1.76-1.4,3.8-2.29,5.93-3.03.71-.24,1.27-.05,1.67.58l10.88,16.96c.22.33.2.65-.04.97-.14.19-.33.35-.56.46-3.9,2.04-8.01,3.55-11.81,5.67-2.12,1.19-4.05,2.24-6.44,2.91-7.19,2.01-14.21,3.99-21.06,5.96-.78.23-1.6.35-2.42.35-5.22.04-10.4.05-15.54,0-.17,0-.29-.04-.38-.12-.08-.07-.08-.15,0-.24Z"/>
      <path class="cls-2" d="M336.47,264.57c-1.39,1.16-2.84,2.14-4.36,2.94-.85.46-.99.29-.43-.5.54-.75,1.01-1.54,1.4-2.38.4-.83.86-1.59,1.37-2.28,1.78-2.39,3.53-4.81,5.24-7.26.9-1.3,2.52-1.91,2.71-3.59.33-3.09-3.21-3.86-5.26-2.07-2.06,1.81-3.3,4.35-5.45,6.22-1.8,1.58-3.45,3.47-4.96,5.67-.23.34-.36.3-.4-.11-.71-7.55-1.45-15.06-2.23-22.52-.65-6.2-.88-12.31-.72-18.34.29-10.33,3.02-20.47,5.92-30.4.93-3.17,2.39-5.82,3.55-8.77,1.65-4.19,3.39-8.05,7.41-10.26,2.82-1.55,4.98-6,8.91-3.28,3.89,2.7,6.45,5.29,8.15,10.02,3.24,9.04,6.96,17.76,9.27,27.12,3.04,12.35,6.27,24.63,9.68,36.82,2.68,9.58,4.94,19.02,7.36,28.53,1.52,5.98,2.6,12.22,4.08,18.36.19.78.09,1.58-.25,2.3-3.24,6.66-6.62,13.73-10.16,21.21-5.07,10.73-10.86,21.16-16.32,31.79-3.58,6.96-8.81,13.76-13.22,20.34-.12.18-.35.24-.55.14-2.22-1.14-4.53-2.5-6.9-4.08-2.72-1.81-5.54-2.74-8.27-4.26-5.84-3.25-11.4-6.65-16.67-10.18-3.37-2.26-9.62-7.12-9.8-11.5-.12-2.95.38-5.55,1.5-7.82,2.1-4.25,4.58-8.55,7.45-12.9.8-1.21,1.09-2.5,1.78-3.73,1.77-3.15,3.58-6.26,5.4-9.34,2.28-3.83,3.86-8.09,5.3-12.12.42-1.17.41-2.61-.04-4.32-.3-1.14-.01-2.2-.27-3.29,0-.03,0-.06,0-.09,0-.23.17-.42.4-.42,1.34-.04,1.86-1.27,2.94-1.94,3.17-1.98,6.34-3.85,9.52-5.62,2.61-1.45,4.68-2.64,5.85-5.77.22-.57.2-1.11-.04-1.63-.5-1.06-.55-2.24-1.66-2.87-2.24-1.27-5.49.76-7.19,2.18Z"/>
      <path class="cls-3" d="M309.04,398.65c-1.1-1.79-1.9-3.78-2.39-5.96-1.03-4.57-1.74-9.49-2.14-14.76-.23-3.09-.53-6.01-.88-8.75-.35-2.65-.53-5.17-.56-7.56-.03-2.55.04-5.1.19-7.66.06-.83.27-1.65.64-2.49.24-.51.18-1.01.16-1.58,0-.16.03-.32.1-.46.24-.49.83-.69,1.32-.45,1.16.56,2.11,1.24,2.84,2.05,5.63,6.18,11.84,11.23,18.04,16.62.29.25.34.7.09,1.01-2.58,3.28-5.1,6.38-7.26,10.03-1.24,2.1-2.67,5.38-4.3,9.84-.68,1.83-1.62,3.6-2.5,5.35-.84,1.68-2.17,2.91-2.78,4.71-.02.07-.07.14-.14.17-.15.09-.35.04-.44-.11Z"/>
      <path class="cls-3" d="M277.42,64.07c11.71-.41,10.22,15.4,8.07,22.11-.83,2.61-2.7,5-4.27,7.22-3.57,5.03-10.91,8.48-17.16,6.15-.24-.09-.38-.26-.42-.52-.17-1.11-.2-2.09-.09-2.94,1-7.14,1.72-14.29,2.53-21.48.37-3.23,3.13-6.23,5.63-8.19,1.91-1.5,3.82-2.28,5.72-2.35ZM281.13,75.2c.65-1.66.43-3.79-1.65-4.01-2.98-.32-5.24.83-6.77,3.47-1.34,2.3-.5,5.64-.91,8.25-.33,2.12-1.17,4.48-2.53,7.08-.66,1.28-.69,2.55-.1,3.82.13.27.45.4.71.27,3.66-1.55,6-3.88,7.01-6.99,1.32-4.07,2.74-8.02,4.25-11.88Z"/>
      <path class="cls-2" d="M283.56,128.66c.86.44,1.63.96,2.32,1.55,3.11,2.71,6.26,5.46,9.45,8.25.25.22.35.55.27.88-1.83,7.38-3.55,15.7-5.14,24.94-.38,2.23-1.24,4.34-1.45,6.66-.31,3.65-.49,7.1-.54,10.32-.03,1.38.37,2.63.5,3.99.09.87-.29,1.35-1.17,1.42l-7.43.63c-.52.04-.68.31-.47.79.8,1.88,2.3,3.4,2.44,5.49.35,5.24-1.64,9.78-3.12,14.54-2.27,7.26-4.13,16.42-5.82,22.01-.7,2.32-1.37,4.68-2.01,7.09-1.17,4.4-2.45,8.45-3.72,12.73-1.16,3.89-3.15,7.37-4.27,11.24-.26.9-.59,1.76-1.01,2.58-.4.82-.68,1.68-.83,2.56-1.08,6.7-2.94,13.52-5.59,20.45-.23.62-.43.61-.6-.04-.41-1.56-.29-3.4-.35-4.63-.83-17.84.54-35.79,4.4-53.09.52-2.33.88-4.94,1.1-7.83.47-6.39,1.56-13.14,3.24-20.25.16-.68.58-1.05,1.27-1.13l12.1-1.41h.03c.29-.06.5-.34.44-.63-1.02-5.63-1.97-11.06-2.86-16.3-1.11-6.55-1.58-14.62.76-20.99.42-1.15.19-2.19.47-3.3,1.37-5.5,2.99-11.77,4.86-18.82.78-2.91,1.5-6.06,2.17-9.45,0-.03.02-.06.04-.09.09-.19.32-.26.5-.17Z"/>
      <path class="cls-2" d="M218.37,371.21c-3.04,5.65-5.48,11.4-8.94,16.12-.64.88-.88.78-.73-.3,1.05-7.12,1.6-14.26,1.66-21.43-.21-1.65-.32-3.29-.32-4.93,0-.61.13-1.53.36-2.74.17-.91.27-1.84.27-2.79.14-2.67.41-5.29.3-7.95-.22-5.25-.23-8.86-.04-10.81.29-3.02.51-5.92.67-8.7.02-.32.19-.47.5-.46,1.34.04,2.63-.1,3.85-.43,1.77-.48,3.18.42,4.9.12,2.78-.46,5.91-.7,9.37-.7,2.42,0,4.8-.17,7.12-.5,4.76-.68,9.48-1.13,14.17-1.36.28-.01.56,0,.83.04.65.09.71.32.17.7-4.37,3.06-8.86,6.25-13.48,9.57-1.04.75-1.45,1.83-1.23,3.24.04.23.13.44.29.62,1.11,1.28,2.26,1.56,3.47.86,3.5-2.03,6.6-4,9.3-5.91,3.49-2.46,6.82-4.82,9.99-7.07.58-.41,1.19-.8,1.81-1.17.19-.11.43-.07.58.08,3.26,3.37,6.85,6.25,10.78,8.63,2.99,1.81,6.33,2.71,9.58,3.86.04.01.07.04.09.08.05.09.02.19-.06.24-1.83,1.09-3.5,2.22-5.01,3.41-2.7,2.12-5.02,4.87-7.66,7.21-1.17,1.04-2.19,2.11-3.06,3.19-2,2.5-4.14,5.01-6.43,7.53-1.56,1.73-3.04,3.74-4.45,6.06-1.74,2.88-3.39,5.67-4.94,8.37-3.14,5.47-6.37,12.52-9.71,21.14-.4,1.06-.81,2.05-1.21,2.98-.91,2.14-2.89,4.68.46,6.22.22.1.45.15.68.15,1.45.01,2.45-.53,3.01-1.65,2.3-4.52,4.28-9.17,6.12-13.79,3.32-8.33,7.41-16.04,12.27-23.12,2.68-3.91,6.48-7.6,9.66-11.28,2.24-2.59,4.92-5.19,8.03-7.78,2.22-1.83,4.52-3.32,6.92-4.48l6.7.09c.26,0,.41.14.44.39l1.17,8.23c.43,6.28.68,12.58.77,18.89.04,2.47.51,7.39,1.43,14.73,1.07,8.56,1.86,14.97,7.37,20.79.17.19.2.38.08.6-2.96,5.25-5.99,10.23-9.07,14.95-1.61,2.47-3.08,5.12-4.42,7.94-4.92,10.42-10.02,21.2-15.28,32.33-2.08,4.41-4.22,8.69-6.42,12.84-17.42,32.94-34.12,64.92-50.11,95.95-1.17,2.27-2.38,4.62-3.66,7.04-5.96,11.35-12.03,23.25-18.2,35.7-1.74,3.53-3.78,7.48-6.11,11.86,0,.01,0,.02-.01.03-.11.17-.32.21-.49.1-8.38-5.66-16.36-11.05-23.94-16.16-1.92-1.3-3.37-3.12-5.56-3.99-.01,0-.04-.01-.05-.02-.22-.13-.3-.4-.18-.63,5.21-9.01,10.09-17.54,14.62-25.59.66-1.17.55-2.63-.29-3.67-.15-.19-.35-.33-.59-.43-1.63-.66-2.92-.22-3.86,1.33-2.15,3.55-4.37,6.89-6.64,10.01-2.88,3.96-5.6,8.67-8.15,14.11,0,.02-.01.04-.03.06-.29.55-.98.76-1.53.45-7.11-3.87-13.96-7.61-20.58-11.21-2.02-1.1-3.99-2.33-5.92-3.69-2.31-1.63-4.89-2.97-7.75-4.04-.27-.1-.35-.28-.22-.55,3.45-7.11,6.9-14.2,10.32-21.27.33-.68.66-1.33.99-1.96,2.96-5.66,5.94-11.18,8.24-16.66.27-.65.6-1.24.98-1.77,1.3-1.84,1.93-3.96,3.02-5.91,3.91-6.96,7.66-13.96,11.25-21.01,1.35-2.65,3.22-5.38,4.36-7.89,9.3-20.43,18.9-40.25,28.51-60.77,1.45-3.11,3.05-6.3,4.78-9.59,1.54-2.9,3.01-6.19,4.4-9.86,2.15-5.64,4.47-11.51,6.96-17.61.78-1.91,2.43-2.96,3.37-4.78,4.37-8.45,9.09-17.72,14.19-27.82,1.65-3.29-3.11-5.71-4.81-2.55Z"/>
      <path class="cls-1" d="M279.48,71.19c2.09.22,2.31,2.35,1.65,4.01-1.51,3.86-2.93,7.81-4.25,11.88-1.01,3.12-3.35,5.45-7.01,6.99-.27.12-.58,0-.71-.27-.59-1.27-.56-2.54.1-3.82,1.36-2.6,2.2-4.96,2.53-7.08.41-2.6-.42-5.95.91-8.25,1.53-2.63,3.79-3.78,6.77-3.47Z"/>
      <path class="cls-2" d="M255.7,318.35c0,.12-.09.22-.22.22l-17.04.19h-.04c-.12-.02-.2-.14-.18-.27l1.42-7.92c.02-.1.11-.18.21-.19l10.3-.4c.09,0,.16.04.2.1l5.3,8.14s.04.08.04.12Z"/>
      <path class="cls-3" d="M215.16,45.36c2.93-4.23,7.81-8.16,12.29-9.48.02,0,.05,0,.07-.01.28-.04.55.16.58.44.73,5.04,2.73,14.56,7.77,17.02,3.24,1.58,8.11,2.41,10.3-.55,1.32-1.78,2.36-3.5,3.09-5.15,1.15-2.6.14-7.04-.31-9.96-.06-.36.09-.48.44-.36,4.79,1.69,7.95,5.91,6.18,11.23-.85,2.56-1.65,5.18-2.41,7.84-.73,2.59.05,4.31,1.49,6.28.24.33.16.46-.24.4-2.71-.41-5.21-.79-7.5-1.15-.96-.14-2.06-.72-3.3-1.73-.19-.15-.4-.23-.64-.23-11.09-.06-22.39-.14-33.89-.27-.7,0-1.38.11-2.06.34-.93.32-1.15.05-.67-.81,1.83-3.27,3.36-7.04,5.76-9.87,1.05-1.24,2.06-2.56,3.04-3.98Z"/>
      <path class="cls-3" d="M236.48,167.28c2.24-3.63,5-6.81,7.33-10.4,2.89-4.45,6.01-9.04,9.37-13.79,3.15-4.45,5.85-9.11,8.84-13.67,1.78-2.72,3.04-5.89,4.89-8.8,1.54-2.41,4.07-3.85,7.6-4.32,2.35-.32,2.5,2.06,2.79,3.69.5,2.76.49,5.45-.04,8.08-1.37,6.89-2.78,12.25-4.25,16.09-1.05,2.73-1.97,5.37-2.77,7.92-1.48,4.75-3.33,9.11-5.53,13.08-.35.63-.82,1.04-1.42,1.26-.78.29-1.45.24-1.98-.12-5.94.58-9.63,1.19-11.05,1.83-1.63.73-3.24,1.4-4.86,2.02-.86.11-1.49.09-1.88-.04-2.32-.81-4.63-1.65-6.94-2.53,0,0-.02,0-.04-.01-.09-.06-.12-.18-.06-.28Z"/>
      <path class="cls-3" d="M241.53,209.09c-1.88,2.65-3.16,5.53-5.27,8-.05.06-.12.12-.2.14-.22.05-.44-.08-.5-.29-.32-1.17-.58-2.3-.78-3.41-.95-5.24-1.53-10.3-1.71-15.17-.29-7.66-1.19-14.91-.65-22.97.03-.39.36-.68.75-.67,3.14.13,6.01.66,8.61,1.59,1.75.63,4.32.58,5.79-.43,1.42-.98,2.55-1.57,3.37-1.78,1.91-.48,5.4-.92,10.45-1.32.29-.01.37.11.26.37-5.86,13.28-12.57,25.27-20.11,35.94Z"/>
      <path class="cls-2" d="M234.07,310.53c.27.01.39.16.36.43l-.91,8.84c-3.53.77-7.12.95-10.77.54l-1.44.06c-.17.14-.43.14-.76.01l-10.12.83c-.05,0-.1,0-.15-.01-.19-.07-.3-.29-.24-.49.94-2.73,1.57-5.47,1.88-8.2.03-.21.15-.32.36-.32,6.22-.18,12.67-.71,19.37-1.59.83-.11,1.63-.14,2.42-.1Z"/>
      <path class="cls-3" d="M233.59,10.84c.73,4.06,1.81,7.97,3.25,11.75,2.36,6.2,4.92,12.16,7.68,17.87,1.03,2.14,1.58,4.37,1.65,6.71.01.3-.13.45-.43.43-.77-.02-1.45-.29-2.22-.37-3.73-.35-6.34-2.38-7.85-6.11-3.37-8.34-3.6-17.53-3.41-26.58.03-1.35.25-2.61.66-3.76.29-.82.52-.8.67.05Z"/>
      <path class="cls-3" d="M201.23,84.25c3.79-4.96,6.86-10.22,9.2-15.79.61-1.46,2.5-1.56,3.13-.05,1.03,2.47,2.16,4.96,3.4,7.48.81,1.63,2.1,2.52,3.89,2.67,3.37.29,7.05.45,11.02.47,2.14,0,3.89-.78,5.35-2.32,3.21-3.4,5.9-6.45,8.08-9.17.11-.12.27-.19.43-.17l11.58,1.81c.63.1,1.1.63,1.12,1.27.04,1.57-.22,3.01-.76,4.35-1.53,3.77-4.19,6.97-7.98,9.6-4.43,3.09-8.88,6.25-13.32,9.5-.03.02-.05.05-.06.08-.07.12-.04.28.09.35,2.53,1.49,6.32,1.37,9.19,1.42.86.02,1.21.45,1.05,1.29l-.5,2.77c-.28,1.53-1.19,2.3-2.75,2.32-2.99.06-5.69-.63-8.1-2.06-.86-.51-1.11-.3-.74.63,1.58,3.95,1.74,9.03-.9,12.75-4.4,6.19-11.72,8.84-19.06,6.68-2.05-.6-4.01-1.32-5.86-2.17-.62-.28-1.29-.42-1.99-.42h-.02c-.55,0-.99-.47-.99-1.03.06-2.27.04-4.71-.04-7.31-.06-1.71.13-3.34.56-4.89.03-.11.13-.19.24-.19h16.42c1.41,0,2.46-.62,3.14-1.85.23-.41.27-.85.12-1.32-.5-1.58-1.58-2.37-3.23-2.37h-15.19c-.81-.01-1.16-.42-1.04-1.22l.55-3.6c.14-.86.84-1.53,1.71-1.62l5.94-.57c.6-.05,1.11-.47,1.27-1.06.86-3.02-1.54-4.19-4.14-4.41-3.14-.27-6.63-.51-10.48-.73-.27-.01-.5-.24-.52-.52-.01-.23.06-.45.2-.64Z"/>
      <path class="cls-3" d="M199.03,21.92c-.44-2.43-.53-4.99-.25-7.67.08-.75.28-.78.6-.11,1.01,2.12,1.96,4.26,2.86,6.45.32.78.83,1.2,1.1,1.99.79,2.26,1.69,4.31,2.68,6.15,1.76,3.26,4.78,5.8,7.19,8.63.32.38.35.93.07,1.34-1.19,1.76-2.63,3.44-4.34,5.06-.08.08-.17.14-.27.19-.5.22-1.07,0-1.3-.5-.85-1.89-2.24-3.34-3.07-5.3-2.71-6.46-4.47-11.86-5.27-16.22Z"/>
      <path class="cls-2" d="M203.98,357.96l-8.35,16.73c-.42.85-.62.8-.59-.15.18-6.75.17-14.08.83-21.07.72-7.58,1.4-15.08,2.02-22.51.47-5.51.8-11.55.99-18.14.35-11.63.69-23.04,1.01-34.24.19-6.65,1.04-13.16,1.74-19.66.17-1.59-.08-3.23.12-4.83.68-5.55,1.31-11.13,1.9-16.71.43-4.04,1.08-8.36,1.96-12.95,1.04-5.4,1.89-11.06,2.57-16.96.33-2.88.95-5.74,1.86-8.59.11-.32.4-.56.73-.6l8.2-.88c.25-.02.37.09.34.35-1.34,13.24-3.09,26.51-5.27,39.82-.81,4.99-1.42,9.74-1.83,14.27-1.03,11.55-2,23.3-3.92,34.74-1.78,10.6-2.22,21.68-3.24,32.19-.43,4.52-.03,9.3-.14,13.86-.17,7.45-.37,15.41-.6,23.88-.01.5-.14,1-.36,1.45Z"/>
      <path class="cls-1" d="M353.21,483c-1.83-.88-3.6-1.12-5.32-.69-.14.04-.27-.05-.31-.18,0-.04,0-.06,0-.1.46-3.3,1.08-9.86-1.43-12.37-4.89-4.89-9.48-10.23-13.76-16.03-.73-.98-1.22-2.05-1.86-3.09-.22-.36-.36-.33-.42.09-4.39,30.05-8.81,60.36-13.25,90.96-.4,2.78-1.14,5.51-1.89,8.22-.07.29-.04.55.12.8l35.89,56.89c.08.12.24.16.36.08,14.53-9.27,29.46-18.02,43.73-27.71.95-.65,2.71-1.11,3.96-1.86,4.3-2.58,8.34-5.54,12.1-8.91.14-.13.24-.29.29-.47.09-.31,0-.54-.25-.68.43-.6.48-1.22.16-1.83-1.96-3.65-4.12-7.19-6.47-10.6-.53-.77-1.16-1.07-1.87-.91-.15-.14-.27-.31-.35-.49-.07-.19-.01-.32.16-.42.06-.03.12-.06.16-.11.16-.13.23-.3.22-.52-.09-3-2.4-2.12-3.6-4.04-2.2-3.55-4.35-7.07-6.43-10.55-1.85-3.09-4.03-6.37-6.55-9.84-5.77-7.99-11.04-15.61-15.81-22.87-.79-1.19-1.49-2.45-2.09-3.77-1.68-3.65-3.46-7.25-5.33-10.76-2.06-3.86-6.35-6.36-10.17-8.21ZM345.36,266.89c-1.17,3.13-3.24,4.32-5.85,5.77-3.18,1.77-6.35,3.64-9.52,5.62-1.08.68-1.6,1.9-2.94,1.94-.22,0-.4.19-.4.42,0,.04,0,.06,0,.09.26,1.09-.03,2.14.27,3.29.45,1.71.45,3.14.04,4.32-1.45,4.03-3.02,8.28-5.3,12.12-1.83,3.08-3.63,6.19-5.4,9.34-.7,1.23-.99,2.53-1.78,3.73-2.87,4.35-5.35,8.65-7.45,12.9-1.12,2.27-1.61,4.87-1.5,7.82.18,4.39,6.43,9.25,9.8,11.5,5.27,3.53,10.83,6.93,16.67,10.18,2.73,1.52,5.55,2.45,8.27,4.26,2.37,1.58,4.68,2.94,6.9,4.08.19.11.43.04.55-.14,4.41-6.58,9.64-13.38,13.22-20.34,5.46-10.63,11.25-21.06,16.32-31.79,3.54-7.48,6.92-14.55,10.16-21.21.35-.71.44-1.52.25-2.3-1.47-6.14-2.56-12.38-4.08-18.36-2.42-9.52-4.68-18.95-7.36-28.53-3.41-12.2-6.64-24.47-9.68-36.82-2.3-9.36-6.02-18.08-9.27-27.12-1.7-4.73-4.27-7.32-8.15-10.02-3.93-2.72-6.09,1.73-8.91,3.28-4.02,2.21-5.76,6.07-7.41,10.26-1.16,2.95-2.62,5.6-3.55,8.77-2.9,9.94-5.63,20.07-5.92,30.4-.17,6.03.07,12.14.72,18.34.78,7.46,1.53,14.97,2.23,22.52.04.41.17.45.4.11,1.51-2.2,3.17-4.09,4.96-5.67,2.15-1.88,3.39-4.41,5.45-6.22,2.05-1.79,5.59-1.02,5.26,2.07-.19,1.68-1.81,2.3-2.71,3.59-1.71,2.45-3.45,4.87-5.24,7.26-.51.69-.96,1.45-1.37,2.28-.4.84-.86,1.63-1.4,2.38-.56.79-.42.96.43.5,1.52-.81,2.97-1.78,4.36-2.94,1.7-1.42,4.95-3.45,7.19-2.18,1.12.63,1.17,1.81,1.66,2.87.24.52.26,1.06.04,1.63ZM236.36,93.92c4.45-3.25,8.89-6.42,13.32-9.5,3.78-2.63,6.45-5.83,7.98-9.6.55-1.33.81-2.78.76-4.35-.01-.63-.48-1.17-1.12-1.27l-11.58-1.81c-.17-.02-.32.04-.43.17-2.18,2.71-4.87,5.77-8.08,9.17-1.46,1.55-3.22,2.33-5.35,2.32-3.97-.02-7.65-.18-11.02-.47-1.79-.15-3.09-1.04-3.89-2.67-1.24-2.52-2.37-5.01-3.4-7.48-.63-1.51-2.52-1.41-3.13.05-2.35,5.57-5.41,10.83-9.2,15.79-.14.19-.22.41-.2.64.02.28.24.5.52.52,3.85.22,7.35.46,10.48.73,2.6.22,5,1.39,4.14,4.41-.17.58-.67,1.01-1.27,1.06l-5.94.57c-.87.09-1.58.76-1.71,1.62l-.55,3.6c-.12.81.23,1.21,1.04,1.21h15.19c1.65.01,2.73.81,3.23,2.38.15.47.11.91-.12,1.32-.68,1.23-1.73,1.84-3.14,1.84h-16.42c-.12,0-.22.09-.24.19-.43,1.55-.62,3.19-.56,4.89.09,2.6.1,5.04.04,7.31,0,.56.43,1.02.99,1.03h.02c.71,0,1.37.14,1.99.42,1.86.84,3.81,1.56,5.86,2.17,7.34,2.16,14.66-.48,19.06-6.68,2.64-3.72,2.48-8.8.9-12.75-.37-.94-.12-1.14.74-.63,2.41,1.43,5.11,2.12,8.1,2.06,1.55-.02,2.47-.8,2.75-2.32l.5-2.77c.16-.83-.19-1.27-1.05-1.29-2.88-.06-6.67.06-9.19-1.42-.12-.07-.16-.23-.09-.35.01-.03.04-.06.06-.08ZM194.89,183.86c.22.06.41.21.53.4,1.45,2.19,2.86,2.66,2.71,5.74-.22,4.6-.34,9.4-.75,13.9-.86,9.53-1.24,16.06-1.14,19.58.19,5.91.45,11.55.78,16.94,0,.07.06.13.14.12h.27c.22-.02.38-.19.4-.4.39-4.3.88-8.29,1.48-11.96,1.45-8.86,3.22-18.48,5.3-28.84.06-.27-.05-.43-.32-.5l-2.99-.73c-.4-.09-.65-.49-.58-.91.17-.86.46-1.62.88-2.29,2.94-4.67,6.39-9.8,8.55-15.02,2.15-5.19,4.86-9.71,6.58-15.21.12-.37,0-.47-.35-.3-2.62,1.27-4.52,2.36-5.71,3.29-1.71,1.35-3.44,2.53-5.17,3.52-1.48.85-2.65,1.94-3.96,3.03-2.5,2.1-5.5,3.13-6.56,6.63-.25.83-.61,1.58-1.09,2.24-.23.33-.45.68-.67,1.04-.63,1.08-1.16,2.3-1.59,3.65-2.38,7.59-5.25,15.56-7.81,23.32-4.96,15.01-9.63,28.13-14.89,40.57-1.78,4.22-1.58,9.06-1.35,13.52.12,2.21,3.75,4.72,5.4,5.74.23.14.3.35.2.6-.39,1.05-1.17,1.64-2.32,1.77-3.14.35-6.43.37-9.71.73-.84.09-1.68.21-2.53.36-3.8.68-4.79,3.35-7.41,5.4-3,2.34-5.58,4.95-8.65,7.19-2.03,1.49-3.41,3.47-5.53,4.78-1.25.79-2.42,1.76-3.49,2.9-1.97,2.12-4.47,3.42-6.48,5.41-2.06,2.02-4.14,3.91-6.24,5.67-.22.19-.21.35.03.51,4.08,2.67,8.45,5.29,11.81,8.74,3.81,3.91,7.45,8.09,10.95,12.55,2.58,3.29,4.39,7,6.74,10.49.13.19.39.24.58.12.04-.03.08-.07.11-.12,1.86-2.78,3.94-5.48,6.22-8.09,1.21-1.38,2.76-2.71,4.66-3.99,2.3-1.55,4-3,5.12-4.36,1.96-2.37,4.03-4.9,6.19-7.57.89-1.1,1.24-2.12,1.4-3.53.58-5.25-.33-10.21-2.73-14.89-2.3-4.48-4.3-9.03-8.06-12.75-1.68-1.67-2.68-3.78-3.25-5.98-.12-.47.16-.96.63-1.08.04-.01.08-.01.12-.02.16-.02.32,0,.46.06,6.95,3.01,12.09,7.66,15.41,13.94,1.22,2.2,2.36,4.38,3.42,6.55,1.01,2.06,2.02,3.41,3.67,4.76.17.14.4.11.53-.05.03-.04.05-.09.06-.14,1.04-3.62.32-8.16-.3-11.86-.24-1.47-.1-2.93-.27-4.39.8-5.35,2.41-11.12,3.08-15.77.86-5.96,1.4-11.68,1.62-17.19.14-3.71.91-7.36,1.07-11.06.32-7.86.63-15.76.94-23.7.32-8.49.22-16.46,1.16-25.15.3-2.78.78-5.21,1.42-7.29.01-.05.04-.1.06-.15.22-.42.71-.65,1.18-.5ZM524.8,365.57c3.41.35,4.56,2.99,3.01,5.91-3.58,6.76-6.91,13.37-9.99,19.82-4.56,9.57-9.54,17.71-15.97,25.89-2.39,3.04-5.31,6.04-8.76,9-.98.83-1.58,1.47-2.95,1.63-.33.04-.64-.19-.68-.53,0-.02,0-.04,0-.06-.09-7.48-.41-14.92-.96-22.33-.01-.17-.17-.3-.33-.29-.04,0-.06.01-.1.02-1.25.55-2.45,1.24-3.58,2.08-4.17,3.1-8.04,6.18-12.5,8.75-8.89,5.12-16.2,8.8-21.94,11.02-5.91,2.29-13.13,4.35-21.66,6.16-8.47,1.81-17.94,2.61-28.43,2.38-10.31-.22-19.58-1.44-27.82-3.66-11.12-2.99-21.97-7.52-32.53-13.58-2.53-1.45-4.81-3.04-6.82-4.76-4.53-3.86-9.07-6.9-12.66-12.01-.36-.51-1.07-.64-1.59-.28-1.71,1.19-3.01,2.88-3.9,5.04-1.01,2.46-1.78,4.58-2.3,6.37-.06.23-.06.47,0,.71.35,1.17.92,2.26,1.71,3.29,4.34,5.69,8.74,11.22,12.5,17.28,5.17,8.32,10.57,16.66,16.25,24.58,1.74,2.43,3.83,4.84,6.28,7.25,2.86,2.81,3.2,6.86,3.73,10.62.15,1.07.83,1.99,1.81,2.45,2.26,1.06,4.48,2.09,6.68,3.08,2,.91,3.39,2.93,4.48,4.83,2.89,5.04,5.91,9.95,9.04,14.73,5.45,8.29,10.78,16.48,16.62,24.56,3.76,5.22,7.46,10.35,11.1,15.39,2.07,2.88,3.76,5.81,5.43,8.86,3.21,5.83,7.68,10.51,10.37,16.73.44,1.01.03,1.99-.62,2.77-1.44,1.73-2.99,3.48-4.65,5.22-.33.35-.32.7.01,1.04,2.86,2.85,4.3,6.73,6.4,10.09,2.52,4.03,5,8,7.43,11.93,2.73,4.4,7.53,5.61,10.84,9.21,3.86,4.19,5.87,9.44,7.4,14.97.1.37.48.59.85.49.04-.01.09-.03.12-.05,1.31-.63,4.1-2.09,5.26-.76,3.25,3.74,5.99,7.87,8.24,12.38,1.24,2.49,2.94,4.71,4.28,7.12.65,1.17.44,2.24-.64,3.21-5.92,5.34-12.12,9.94-19.31,14.31-4.88,2.97-9.79,6.22-14.74,9.76-2.16,1.55-3.19.05-4.77-1.71-1.35-1.5-2.71-3.01-4.05-4.53-.12-.12-.31-.14-.43-.02,0,0-.01.01-.02.01-6.01,6.35-12.19,12.28-18.52,17.79-2.4,2.09-5.09,3.81-7.84,5.5-.72.45-1.01,1.06-.88,1.82.06.35.36.6.7.59,24.67.07,50.89.17,78.65.29,3.27.01,7.65-.42,7.71,4.32.03,2.04-1.02,3.12-3.15,3.25-4.38.27-9.86,0-13.07-.01-73.05-.18-146.1-.21-219.16-.09-3.35,0-6.61-.22-9.83-.17-23.51.32-53.73.38-90.65.18-5.96-.03-11.42-.03-16.37-.01-20.19.09-39.92.14-59.17.16-10.7.01-21.58.44-32.17.37-1.86,0-4.09-.88-4.4-2.96-.15-1.03.12-2.13.81-3.3,1.7-1.3,3.42-1.96,5.17-1.97,21.71-.09,43.41-.06,65.11.06,2.96.01,5.9-.04,8.83-.16,2.39.13,4.65-.24,6.76-1.12.29-.12.29-.25.02-.4-1.32-.73-2.29-1.23-2.91-1.49-4.83-1.99-9.46-4.08-13.89-6.29-3.78-1.89-7.39-3.06-11.27-4.17-.73-.21-.95-.66-.65-1.37.61-1.41,1.49-2.75,2.64-4.01.14-.15.12-.38-.03-.52-.06-.06-.14-.09-.24-.09-3.37-.06-6.68-.22-9.95-.97-8.66-2-17.25-5.39-24.9-10.11-3.19-1.98-6.55-3.69-9.66-5.72-4.89-3.19-9.84-6.79-14.85-10.82-5.16-4.17-9.74-9.09-14.52-13.7-1.93-1.86-.12-4.81,1.27-7.19,1.51-2.59,3.14-5.28,4.88-8.06.99-1.6,2.52-.68,3.66.04.47.29.87.22,1.2-.22,2.01-2.65,4.5-4.17,7.48-4.54,4.58-.58,8.58-.01,12.01,1.67,3.3,1.62,6.58,3.48,9.86,5.58,1.38.88,2.83,1.3,4.51,1.12,4.37-.49,9.14-.58,14.3-.29,4.34.25,8.09-.33,11.51,3.01.34.33.79.52,1.26.52,7.05.03,13.61-.92,19.69-2.86,4.27-1.35,7.78-4.07,10.54-8.14,2.45-3.61,4.97-7.59,7.56-11.93.19-.3.12-.53-.21-.67-.96-.43-1.85-.97-2.66-1.6-2.5-1.95-5.01-3.99-7.53-6.12-.66-.56-1.27-1.16-1.8-1.79-2-2.37,1.19-7.66,2.42-10.02,5.84-11.18,10.95-21.45,15.34-30.79.01-.01,1.01-2.01,2.99-5.97,1.37-2.72,2.48-5.46,3.36-8.21,1.53-2.01,2.85-4.14,3.98-6.36,5.42-10.61,10.8-21.04,16.15-31.32,1.21-2.32,2.35-5.4,3.64-7.91,4.4-8.6,8.74-17.22,13.03-25.87,2.77-6.07,6.09-12.06,8.42-18.04,2.63-6.78,5.62-13.62,8.94-20.53.09-.17.01-.38-.16-.47-.05-.02-.1-.04-.16-.04l-11.78.27c-.24,0-.45-.19-.46-.44-.04-1.32.07-2.58.32-3.75,1.07-5.01,2.41-10.17,3.3-15.17,1.15-6.48,2.31-12.74,3.48-18.78,1.25-6.47,2.01-13.38,2.27-20.72.46-12.71,1.08-25.7,1.86-38.99.02-.35-.24-.64-.58-.66-.06,0-.13,0-.19.01-.63.16-1.2.48-1.72.96-7.9,7.19-16.18,14.11-24.97,20.57-4.58,3.36-9.39,7.01-14.45,10.95-1.86,1.45-6.71,4.68-8.76,3.48-1.49-.87-2.95-2.22-4.39-4.04-1.94-2.47-3.91-4.8-5.89-6.98-.24-.27-.66-.28-.94-.04-.07.07-.14.17-.17.26-.83,2.35-1.95,4.48-3.81,6.19-2.93,2.7-5.07,5.35-6.24,9.32-1.85,6.29-4.38,12.45-10.46,15.37-.23.12-.33.39-.22.63.03.06.06.11.11.14,2.01,1.85,3.97,3.6,5.89,5.26,1.91,1.65,2.83,3.64,2.76,5.96-.09,3.04-4.55,2.54-6.45,2.22-.39-.06-.5.08-.31.42,1.02,1.91,2.04,3.63.96,5.78-1.6,3.19-6.42,1.95-8.41.05-.89-.86-1.78-1.82-2.65-2.89-.47-.58-.75-.5-.84.24-.25,2.01-4.56,3.94-6.3,4.76-4.87,2.31-8.6-1.15-10.71-5.13-3.05-5.75-6.05-12.71-6.53-19.2-.35-4.71-.42-9.5-.21-14.39.31-7.24,2.99-13.12,6.87-18.97,6.01-9.02,12.24-16.73,18.68-23.1,1.58-1.55,2.35-3.42,2.3-5.63-.01-.78.59-1.68,1.8-2.72,2.26-1.91,4.26-3.76,6-5.53,3.18-2.57,6.22-5.15,9.13-7.76,3.3-2.94,6.34-5.51,9.13-7.74,4.42-3.5,8.81-7.15,13.2-10.94,2.7-2.33,4.68-4.96,6.4-8.04.75-1.31,1.81-2.09,3.17-2.32,1.9-.32,4.06-.69,6.48-1.11.68-.11,1.19-.7,1.19-1.4l.06-3.65c-.04-5.17.73-9.79,2.34-13.86,2.18-5.51,4.4-11.22,6.66-17.15,2.24-5.83,4.03-11.9,6.37-17.6,1.99-4.84,2.94-10.04,4.72-14.74,1.02-2.7,2.04-5.53,3.06-8.5,1.47-4.23,3.44-8.16,5.5-12.13,1.97-3.79,5.21-5.8,8.44-8.32,1.38-1.08,2.8-2.13,4.25-3.14,9.05-6.31,18.06-12.68,27.02-19.13,1.17-.84,1.89-1.91,1.81-3.4-.24-4.71-.35-9.57-.29-14.58,0-.23-.11-.34-.34-.34l-10.39.29c-.69.02-1.36.24-1.93.64-5.65,3.99-10.63,8.13-17.1,11.65-3.84,1.99-8.2,3.68-13.08,5.05-.39.12-.79-.12-.9-.5-.04-.15-.04-.31.01-.46.47-1.26,1.03-2.68,1.71-3.9,4.07-7.22,7.42-14.22,10.07-21.02,1.06-2.73,1.61-5.49,1.63-8.28.03-3.97.09-7.9.16-11.78.06-3.04.63-5.38,1.47-8.19.27-.88-.06-1.39-.98-1.52-4.24-.61-9.59-1.76-6-7.79,2.25-3.78,4.48-7.58,6.67-11.4.62-1.06,1.17-2.24,1.65-3.53.17-.43.06-.92-.27-1.25-2.34-2.37-4.42-5.23-2.93-8.68,1.22-2.81,2.69-5.4,4.43-7.78.16-.22.15-.43-.02-.65-5.12-6.1-8.79-13.75-11.02-22.96-2.1-8.72-1.84-17.01.78-24.87,1.08-1.7,3.06-2.32,4.47-.58.65.8,1.17,1.67,1.55,2.6,2.01,4.83,4.09,9.64,6.25,14.42,1.49,3.29,3.08,6.02,5.47,9.04,1.71,2.15,3.31,4.17,4.81,6.07.42.53.9.6,1.45.22,2.44-1.67,4.84-2.8,7.2-3.39.2-.05.3-.18.3-.39.05-3.87-.47-7.75-.37-11.41.17-5.77,1.12-11.33,2.86-16.7,1.03-3.17,4.24-3.68,6.01-.65,1.22,2.12,2.27,4.42,3.14,6.93,1.48,4.25,2.89,8.52,4.22,12.81.64,2.04,1.47,3.96,2.5,5.76.33.58.94.93,1.59.93,6.51.04,13.85.46,19.76,2.22,14.14,4.22,24.87,16.25,27.05,31.07.42,2.91.21,5.68.14,8.63-.01.53.17,1.04.51,1.42,2.52,2.88,4.91,5.66,7.17,8.35,4.89,5.8,10.81,9.88,17.76,12.25,8.17,2.78,17.61,1.19,25.34-1.78.88-.34,1.89.08,2.25.94,1.97,4.61-5.3,6.86-8.3,8-7.98,3.03-16.22,3.73-24.74,2.09-2.09-.4-5.65-2.8-8.65-2.8-.42,0-.47.15-.18.44.86.85,1.97,1.42,2.89,2.23,1.79,1.56,3.51,3.1,5.17,4.61,8.16,7.49,19.06,8.64,29.51,6.22.4-.09.78-.15,1.17-.18,1.31-.09,2.09,1.05,1.49,2.18-1.65,3.14-6.63,5.63-9.81,6.95-6.09,2.53-13.22,4.62-21.4,6.25-6.23,1.24-12.34,1.17-18.58.34-.55-.07-.73.15-.56.68.37,1.09,1.06,1.99,2.06,2.72,3.18,2.32,6.45,4.5,9.81,6.55,14.36,8.75,28.33,16.47,41.93,23.17,5.95,2.94,10.76,5.75,13.48,11.5,3.21,6.84,5.3,15.15,7.35,22.87.96,3.62,1.92,7.03,2.87,10.24,2.1,7.04,3.86,14.11,5.92,21.1,3.39,11.47,6.52,23.05,9.38,34.75,1.77,7.19,4.02,14.2,5.11,21.78.83,5.76.04,10.25-2.54,15.45-5.84,11.78-11.55,22.35-17.13,31.74-.11.19-.09.36.04.52,9.96,11.91,18.71,24.71,26.25,38.38.93,1.68,1.52,4.22-.55,5.64-2.85,1.96-5.87,3.59-9.05,4.89-3.76,1.6-7.49,3.17-11.21,4.71-3.24,1.34-8.56,2.94-15.98,4.81-8.94,2.09-18.43,2.3-27.6,2.59-.86.03-1.62.33-2.28.89-.21.19-.23.51-.04.73l.04.04c6.35,5.64,13.56,10.19,21.63,13.64,8.32,3.57,17.19,6.46,26.17,7.72,10.47,1.45,20.87,2.26,31.25,1.87,3.14-.12,6.29-.42,9.44-.9,16.42-2.5,31.78-8.14,46.08-16.93,3.85-2.36,7.25-5.27,10.89-7.94,1.31-.95,2.79-1.72,4.46-2.31.14-.04.21-.19.16-.32-.01-.04-.04-.09-.08-.12-1.14-.88-2.27-1.68-3.42-2.37-4.99-3.03-10.24-6.12-15.72-9.29-2.22-1.28-4.34-2.76-6.35-4.44-.1-.08-.09-.15.02-.22,3.53-1.94,6.63-3.15,9.3-3.64,16.57-3.03,33.15-3.01,50.23-3.17,2.73-.02,5.48.1,8.23.37ZM519.67,371.9c.04-.18-.07-.36-.25-.4-.02,0-.04,0-.07,0-11.87-.14-22.58-.07-32.11.23-5.64.18-11.31.73-17.01,1.64-.35.06-.37.17-.04.32,1.91.91,3.45,2.39,5.32,3.42,3,1.66,6.07,3.31,9.2,4.94,2.71,1.41,4.2,3.59,4.48,6.54.03.24-.03.49-.16.7-.86,1.42-2.04,2.73-3.57,3.96-5.96,4.79-11.91,8.93-17.82,12.41-4.29,2.53-8.22,4.47-11.81,5.83-5.78,2.2-11.88,5.07-17.68,6.66-8.85,2.44-16.63,3.91-23.37,4.41-8.81.67-18.97.06-30.49-1.81-1.24-.2-2.48-.3-3.75-.31-.63,0-1.19.17-1.69.51-1.69,1.16-2.65,2.76-2.87,4.81-.06.5.16.84.63,1.01,2.86,1.04,5.62,1.58,8.26,1.63,1.63.04,3.31.12,5.07.27,10.69.86,20.39.75,29.11-.34,14.58-1.81,29.05-6.63,43.41-14.45,3.61-1.96,7.04-4.35,10.53-6.45,5.69-3.43,11.07-8.11,16.08-12.22.96-.78,1.92-1.14,2.89-1.07.29.03.49.18.58.45l1.14,3.35c.06.19,0,.31-.18.37-.09.03-.12.09-.09.19.01.04.02.07.02.11.09,1.14.35,2.26.75,3.37.33.89.52,1.85.56,2.86.19,4.07.2,8.07.01,12.02-.01.45.09.47.3.09,2.32-4,5.6-6.93,8.11-10.95,5.45-8.75,9.84-16.8,13.15-24.16,1.51-3.35,2.63-6.65,3.37-9.9ZM451.85,632.78c.1-.07.12-.21.06-.32l-3.04-4.95c-.06-.09-.18-.12-.27-.06,0,0-.01,0-.02,0-3.37,2.52-6.89,4.05-10.44,6.71-3.04,2.27-6.53,4-9.58,6.38-2.33,1.81-4.84,3.09-6.99,5.07-1.09,1.01-2.35,1.91-3.77,2.68-3.42,1.87-7.16,4.32-11.22,7.35-1.55,1.17-2.82,2.56-4.4,3.69-2.72,1.96-5.42,4.07-8.09,6.36-.83.72-1.73,1.4-2.71,2.04-3.74,2.48-6.54,4.78-11.16,5.27-4.2.45-9.04.72-14.52.83l-30.44.35c-.57,0-.81.29-.74.86.09.63.17,1.22.24,1.78.08.57.4.86.97.87l29.41.76c5.73.23,11.45.07,17.17-.49,2.13-.2,3.91-.71,5.33-1.53,8.16-4.67,16.32-10.29,24.47-16.85,1.96-1.58,3.68-3.68,5.91-4.78,3.42-1.69,6.06-3.84,9.18-5.83,3.35-2.14,5.83-4.55,9.4-6.46,5.22-2.8,10.3-6.04,15.22-9.74ZM428.26,633.63c2.59-1.77,11.57-6.39,11-10.15-.46-3.09-1.67-6.34-3.63-9.75-2.3-4.01-6.41-6.6-10.17-9.04-.58-.37-1.11-.86-1.57-1.47-2.5-3.31-4.72-6.76-6.68-10.36-1.35-2.47-2.99-4.78-4.42-7.18-.17-.29-.32-.28-.48.01-2.56,4.84-4.08,9.58-4.55,14.21-.2,1.93-1,3.33-1.94,4.95-2.59,4.48-3.84,9.6-6.51,14.06-2.3,3.85-5.5,7.03-8.66,10.22-1.96,1.98-3.42,4.3-5.04,6.53-.31.43-.72.81-1.23,1.16-.14.1-.17.29-.07.42.03.04.06.06.1.09,4.55,2.49,9.41,4.87,13.64,7.88,1.63,1.16,5.21,3.8,7.07,2.22,2.59-2.19,5.41-4.32,8.48-6.39,4.57-3.1,10.04-4.26,14.66-7.42ZM400.08,654.81c.12-.12.11-.29,0-.4-.01,0-.03-.02-.05-.04-3.58-2.29-6.98-4.47-10.17-6.54-2.81-1.82-5.83-3-9.08-3.54-1.89-.32-3.55.27-5,1.76-2.3,2.39-4.51,4.71-6.63,6.96-.47.51-1.04.85-1.64,1.19-.37.21-.35.37.06.47,3.22.83,6.53,1.85,9.93,3.06,3.86,1.38,6.48,4.25,9.68,6.5.38.27.9.24,1.25-.06,2.56-2.13,5.6-4.5,9.14-7.13.91-.66,1.74-1.4,2.51-2.24ZM393.64,371.41c.24-.32.26-.64.04-.97l-10.88-16.96c-.4-.63-.96-.82-1.67-.58-2.13.74-4.17,1.63-5.93,3.03-5.09,4.05-9.5,8.36-13.23,12.94-3.85,4.73-8.32,10.19-14.75,11.02-1.6.21-3.17.32-4.71.35-.45,0-.88.19-1.21.5l-5.88,5.67c-.08.09-.08.17,0,.24.09.08.22.12.38.12,5.14.04,10.32.04,15.54,0,.83,0,1.64-.12,2.42-.35,6.85-1.97,13.87-3.96,21.06-5.96,2.39-.66,4.32-1.72,6.44-2.91,3.79-2.12,7.91-3.63,11.81-5.67.23-.12.42-.27.56-.46ZM386.31,623.91c1.14-1.78,1.36-3.45.68-4.98-3.14-7.04-7.23-13.26-11.34-19.75-.33-.53-1.03-.68-1.55-.35-.01,0-.04.02-.05.03-7.27,5.15-15.05,10.01-23.33,14.58-.27.15-.5.1-.69-.15-1.75-2.32-2.94-5.01-4.75-7.18-1.15-1.38-2.19-2.83-3.13-4.35-4.48-7.32-9.23-14.72-14.26-22.21-4.72-7.03-9.02-13.89-12.89-20.57-1.5-2.6-3.18-5.32-5.04-8.17-1.48-2.29-3.17-5-5.08-8.14-4.61-7.63-9.35-15.51-14.23-23.66-4.49-7.5-8.27-13.57-11.35-18.22-2.89-4.36-5.96-8.81-9.22-13.36-.14-.2-.43-.25-.64-.1-.06.04-.11.1-.14.17-1.97,4.04-4.4,7.77-6.44,11.84-6.34,12.71-11.91,22.72-17.79,34.39-5,9.93-10.09,19.24-14.03,27.07-7.61,15.17-15.23,30.42-22.86,45.75-2.78,5.58-5.27,11.52-8.55,17.06-1.52,2.57-2.82,5.24-4.08,7.99-.46.99-1.15,1.94-2.4,1.88-1.9-.1-3.33-.32-4.3-.66-8.76-3.09-17.27-7.25-25.5-12.48-.16-.1-.36-.06-.47.09-3.53,5.27-7.35,10.43-10.26,16.03-.84,1.63-1,3.25-.78,5.01.47,3.67,1.04,7.7.35,11.29-.55,2.88-1.74,6.1-3.58,9.66-1.12,2.19-2.93,3.42-5.02,4.53-.17.09-.24.3-.15.47.02.04.05.08.09.11,1.6,1.35,4.32,3.19,3.15,5.56-1.05,2.14-2.07,4.35-3.05,6.61-1.06,2.42-2.54,4.4-3.86,6.66-.18.31-.08.7.23.88.06.04.14.07.22.08.47.08.96.12,1.43.13,16.81.37,36.3.06,55.31.04,37.49-.04,75.32.21,112.96.04,6.39-.03,13.22.61,19.71.03.22-.01.38-.21.37-.42,0-.01,0-.03,0-.04-.76-4.59-1.6-11.11-.5-15.89.07-.29.26-.55.53-.71,2.84-1.56,5.39-4.83,7.6-7.26,4.33-4.73,9.33-4.76,15.3-5.04,2.35-.12,4.44-.78,5.95-2.65,4.63-5.74,9.32-10.78,14.06-15.11,2.27-2.06,4.55-3.17,6.38-5.83,2.16-3.13,4.49-6.68,7-10.67ZM379.84,667.62c.11,0,.18-.1.17-.2,0-.04-.02-.09-.06-.12-1.41-1.27-2.78-2.46-4.14-3.56-3.32-2.71-10.81-2.53-14.71-1.6-4.88,1.18-10.09,1.95-15.64,2.31-1.37.09-2.63.75-3.51,1.8l-.73.89c-.79.96-.57,1.43.68,1.42,9.55-.12,18.65-.22,27.28-.28,3.12-.02,6.67-.24,10.67-.66ZM340.35,163.96c.17-.11.21-.32.1-.49-.03-.04-.08-.09-.13-.12-13.07-6.91-25.87-13.92-38.39-21.06-.19-.11-.43-.04-.54.14-.01.04-.03.06-.04.1-1.46,5.81-2.89,11.71-4.28,17.71-.86,3.71-1.53,7.36-2.63,10.94-.59,1.93.15,4.41,0,6.55-.22,3.04.29,6,1.53,8.89.43,1.01.66,2.1.85,3.19.09.53-.24,1.04-.76,1.16l-7.22,1.74c-.45.11-.79.5-.84.96-.28,2.83-.25,6.99-1.37,9.58-2.6,6.01-4.56,12.07-5.89,18.17-1.23,5.63-2.81,10.93-4.35,16.39-.53,1.89-.8,4.17-1.24,5.75-1.91,6.73-4.01,13.48-6.29,20.24-2.09,6.21-3.41,12.38-6.07,18.51-1.81,4.19-3.22,8.49-4.21,12.91-.69,3.09-4.06,5.3-2.3,8.85,4.51,9.07,10.78,16.63,18.81,22.71,6.39,4.83,15.25,6.49,23.17,6.53.3,0,.49-.13.58-.42l2.05-6.41c.07-.21,0-.34-.23-.39-1.98-.43-3.94-.84-5.87-1.23-3.46-.69-6.7-1.82-10.13-2.67-3.91-.96-6.86-3.06-8.84-6.28-.13-.22-.12-.44.04-.65l2.95-3.91c.18-.23.39-.27.63-.11.94.63,1.65,1.58,2.55,2.27,2.81,2.12,5.98,3.28,9.49,3.49,2.48.14,5.78.45,8-.6,3.84-1.8,6.86-4.75,9.04-8.84.88-1.65,2.25-2.96,2.92-4.63,1.56-3.86,2.11-7.54,1.64-11.05-.22-1.63-.25-3.28-.12-4.97.68-8.22,1.29-16.49,1.83-24.81.28-4.33.65-9.12,1.1-14.35.62-7.18,1.13-13.89,1.53-20.15.19-3,1.22-5.79,1.32-8.77.22-5.97.66-11.05,1.35-15.25.72-4.4,1.89-9.06,3.48-13.98,2.73-8.38,7.01-15.82,12.81-22.33,1.14-1.27,2.53-2.35,3.95-3.3ZM326.45,368.65c.24-.31.2-.76-.09-1.01-6.2-5.39-12.4-10.44-18.04-16.62-.73-.81-1.68-1.49-2.84-2.05-.49-.24-1.09-.04-1.32.45-.07.14-.1.3-.1.46.02.56.08,1.06-.16,1.58-.37.83-.58,1.66-.64,2.49-.16,2.56-.22,5.12-.19,7.66.03,2.39.22,4.91.56,7.56.36,2.73.65,5.66.88,8.75.4,5.27,1.12,10.19,2.14,14.76.49,2.18,1.29,4.17,2.39,5.96.09.15.29.2.44.11.06-.04.12-.1.14-.17.61-1.8,1.94-3.04,2.78-4.71.88-1.74,1.82-3.51,2.5-5.35,1.63-4.46,3.06-7.74,4.3-9.84,2.16-3.65,4.68-6.75,7.26-10.03ZM306.24,405.96c.12-.22.09-.41-.08-.6-5.52-5.81-6.3-12.22-7.37-20.79-.92-7.34-1.4-12.25-1.43-14.73-.09-6.32-.34-12.61-.77-18.89l-1.17-8.23c-.03-.25-.18-.38-.44-.39l-6.7-.09c-2.4,1.15-4.71,2.64-6.92,4.48-3.11,2.59-5.78,5.19-8.03,7.78-3.17,3.68-6.97,7.37-9.66,11.28-4.86,7.09-8.96,14.79-12.27,23.12-1.83,4.61-3.82,9.27-6.12,13.79-.56,1.12-1.57,1.66-3.01,1.65-.23,0-.46-.05-.68-.15-3.35-1.53-1.37-4.08-.46-6.22.4-.93.81-1.92,1.21-2.98,3.34-8.62,6.58-15.67,9.71-21.14,1.55-2.7,3.2-5.49,4.94-8.37,1.4-2.32,2.89-4.33,4.45-6.06,2.29-2.51,4.43-5.02,6.43-7.53.87-1.08,1.89-2.14,3.06-3.19,2.64-2.34,4.96-5.09,7.66-7.21,1.51-1.19,3.19-2.32,5.01-3.41.09-.05.12-.16.06-.24-.02-.04-.05-.06-.09-.08-3.25-1.15-6.59-2.06-9.58-3.86-3.93-2.37-7.52-5.25-10.78-8.63-.14-.15-.38-.19-.58-.08-.62.37-1.22.76-1.81,1.17-3.17,2.25-6.5,4.61-9.99,7.07-2.69,1.91-5.79,3.89-9.3,5.91-1.21.71-2.36.42-3.47-.86-.16-.18-.25-.39-.29-.62-.22-1.41.19-2.49,1.23-3.24,4.62-3.32,9.11-6.5,13.48-9.57.55-.37.49-.61-.17-.7-.27-.04-.55-.05-.83-.04-4.69.23-9.42.68-14.17,1.36-2.32.33-4.7.5-7.12.5-3.47,0-6.6.24-9.37.7-1.72.29-3.13-.6-4.9-.12-1.22.33-2.51.47-3.85.43-.31,0-.47.14-.5.46-.16,2.78-.38,5.68-.67,8.7-.19,1.96-.17,5.56.04,10.81.11,2.66-.16,5.28-.3,7.95,0,.95-.1,1.88-.27,2.79-.23,1.22-.35,2.13-.36,2.74,0,1.64.11,3.28.32,4.93-.06,7.17-.61,14.32-1.66,21.43-.15,1.08.09,1.18.73.3,3.47-4.71,5.91-10.47,8.94-16.12,1.7-3.16,6.46-.74,4.81,2.55-5.09,10.1-9.82,19.38-14.19,27.82-.94,1.82-2.59,2.88-3.37,4.78-2.49,6.1-4.81,11.97-6.96,17.61-1.4,3.67-2.86,6.96-4.4,9.86-1.73,3.29-3.33,6.48-4.78,9.59-9.6,20.52-19.2,40.35-28.51,60.77-1.14,2.51-3.01,5.24-4.36,7.89-3.6,7.05-7.35,14.05-11.25,21.01-1.09,1.96-1.72,4.07-3.02,5.91-.37.53-.71,1.12-.98,1.77-2.3,5.48-5.27,11-8.24,16.66-.33.63-.66,1.29-.99,1.96-3.42,7.07-6.87,14.17-10.32,21.27-.13.27-.05.45.22.55,2.86,1.06,5.44,2.41,7.75,4.04,1.93,1.36,3.9,2.59,5.92,3.69,6.62,3.6,13.48,7.34,20.58,11.21.55.3,1.24.1,1.53-.45.01-.01.02-.04.03-.06,2.55-5.44,5.27-10.14,8.15-14.11,2.27-3.12,4.49-6.45,6.64-10.01.94-1.55,2.23-1.99,3.86-1.33.24.1.44.24.59.43.83,1.04.95,2.5.29,3.67-4.53,8.05-9.41,16.58-14.62,25.59-.12.22-.04.5.18.63.01,0,.04.01.05.02,2.19.88,3.64,2.69,5.56,3.99,7.58,5.11,15.56,10.5,23.94,16.16.17.11.38.06.49-.1,0,0,.01-.01.01-.03,2.33-4.38,4.37-8.34,6.11-11.86,6.17-12.45,12.23-24.35,18.2-35.7,1.28-2.42,2.5-4.77,3.66-7.04,15.99-31.03,32.69-63.01,50.11-95.95,2.2-4.15,4.34-8.43,6.42-12.84,5.27-11.13,10.36-21.91,15.28-32.33,1.34-2.82,2.81-5.47,4.42-7.94,3.08-4.72,6.1-9.7,9.07-14.95ZM295.62,139.35c.08-.32-.02-.66-.27-.88-3.19-2.79-6.35-5.55-9.45-8.25-.69-.6-1.47-1.12-2.32-1.55-.18-.09-.41-.02-.5.17-.01.03-.03.06-.04.09-.68,3.4-1.4,6.55-2.17,9.45-1.87,7.05-3.49,13.32-4.86,18.82-.28,1.11-.06,2.14-.47,3.3-2.34,6.37-1.87,14.44-.76,20.99.89,5.24,1.84,10.67,2.86,16.3.06.29-.14.58-.44.63h-.03l-12.1,1.41c-.69.08-1.12.45-1.27,1.13-1.68,7.12-2.77,13.86-3.24,20.25-.22,2.89-.58,5.5-1.1,7.83-3.86,17.3-5.23,35.25-4.4,53.09.06,1.23-.06,3.07.35,4.63.17.65.37.65.6.04,2.65-6.94,4.51-13.76,5.59-20.45.14-.88.42-1.74.83-2.56.42-.82.75-1.68,1.01-2.58,1.12-3.87,3.11-7.35,4.27-11.24,1.27-4.28,2.55-8.33,3.72-12.73.64-2.4,1.31-4.76,2.01-7.09,1.69-5.59,3.55-14.75,5.82-22.01,1.48-4.76,3.47-9.3,3.12-14.54-.14-2.09-1.64-3.61-2.44-5.49-.2-.48-.04-.75.47-.79l7.43-.63c.88-.07,1.27-.55,1.17-1.42-.14-1.36-.53-2.61-.5-3.99.05-3.22.23-6.67.54-10.32.2-2.32,1.06-4.43,1.45-6.66,1.6-9.25,3.32-17.56,5.14-24.94ZM285.49,86.18c2.14-6.71,3.64-22.52-8.07-22.11-1.9.07-3.81.86-5.72,2.35-2.5,1.96-5.26,4.96-5.63,8.19-.81,7.19-1.53,14.35-2.53,21.48-.12.85-.09,1.83.09,2.94.04.26.18.43.42.52,6.25,2.32,13.59-1.12,17.16-6.15,1.58-2.22,3.45-4.61,4.27-7.22ZM277.26,128.06c.53-2.63.54-5.32.04-8.08-.29-1.63-.44-4.01-2.79-3.69-3.53.47-6.07,1.91-7.6,4.32-1.85,2.91-3.12,6.08-4.89,8.8-2.99,4.56-5.68,9.22-8.84,13.67-3.35,4.75-6.48,9.35-9.37,13.79-2.33,3.59-5.09,6.78-7.33,10.4-.06.1-.03.22.06.28.01,0,.03.01.04.01,2.32.88,4.63,1.72,6.94,2.53.39.14,1.01.15,1.88.04,1.61-.62,3.23-1.29,4.86-2.02,1.42-.63,5.11-1.24,11.05-1.83.53.36,1.19.4,1.98.12.6-.22,1.08-.63,1.42-1.26,2.2-3.97,4.05-8.33,5.53-13.08.8-2.55,1.72-5.19,2.77-7.92,1.47-3.84,2.89-9.2,4.25-16.09ZM261.64,173.14c.12-.26.03-.38-.26-.37-5.05.4-8.54.83-10.45,1.32-.82.21-1.94.8-3.37,1.78-1.47,1.01-4.04,1.06-5.79.43-2.6-.93-5.48-1.46-8.61-1.59-.39-.01-.72.28-.75.67-.53,8.05.36,15.31.65,22.97.19,4.88.76,9.94,1.71,15.17.2,1.11.47,2.24.78,3.41.06.22.28.35.5.29.08-.02.15-.07.2-.14,2.12-2.47,3.4-5.35,5.27-8,7.54-10.68,14.25-22.66,20.11-35.94ZM255.48,318.58c.12,0,.22-.1.22-.22,0-.04,0-.09-.04-.12l-5.3-8.14c-.04-.06-.12-.1-.2-.1l-10.3.4c-.1,0-.19.09-.21.19l-1.42,7.92c-.02.12.06.24.18.27h.04l17.04-.19ZM255.58,48.54c1.77-5.32-1.39-9.54-6.18-11.23-.35-.12-.5,0-.44.36.45,2.92,1.46,7.37.31,9.96-.73,1.65-1.77,3.37-3.09,5.15-2.19,2.96-7.06,2.13-10.3.55-5.04-2.46-7.04-11.99-7.77-17.02-.04-.28-.3-.47-.58-.44-.02,0-.05.01-.07.01-4.48,1.32-9.36,5.24-12.29,9.48-.98,1.42-1.99,2.74-3.04,3.98-2.4,2.83-3.93,6.6-5.76,9.87-.48.86-.26,1.13.67.81.68-.23,1.36-.34,2.06-.34,11.5.12,22.79.21,33.89.27.24,0,.45.08.64.23,1.24,1.01,2.34,1.58,3.3,1.73,2.29.36,4.78.74,7.5,1.15.4.06.48-.06.24-.4-1.44-1.97-2.22-3.69-1.49-6.28.76-2.66,1.56-5.28,2.41-7.84ZM245.74,47.61c.3.01.45-.13.43-.43-.07-2.34-.63-4.58-1.65-6.71-2.76-5.71-5.32-11.67-7.68-17.87-1.44-3.78-2.52-7.69-3.25-11.75-.15-.85-.37-.87-.67-.05-.41,1.15-.63,2.41-.66,3.76-.19,9.05.04,18.24,3.41,26.58,1.51,3.73,4.12,5.76,7.85,6.11.77.07,1.45.35,2.22.37ZM234.43,310.96c.03-.27-.09-.42-.36-.43-.78-.04-1.59,0-2.42.1-6.7.88-13.15,1.41-19.37,1.59-.21,0-.33.12-.36.32-.31,2.73-.94,5.47-1.88,8.2-.06.2.04.42.24.49.05.01.1.02.15.01l10.12-.83c.33.13.59.13.76-.01l1.44-.06c3.65.41,7.25.23,10.77-.54l.91-8.84ZM219.33,197.76c.03-.25-.09-.37-.34-.35l-8.2.88c-.34.04-.63.27-.73.6-.91,2.85-1.53,5.71-1.86,8.59-.68,5.9-1.53,11.55-2.57,16.96-.88,4.59-1.53,8.91-1.96,12.95-.59,5.58-1.22,11.16-1.9,16.71-.19,1.6.06,3.24-.12,4.83-.71,6.5-1.55,13.01-1.74,19.66-.32,11.2-.66,22.61-1.01,34.24-.19,6.58-.53,12.63-.99,18.14-.63,7.42-1.3,14.92-2.02,22.51-.66,6.99-.65,14.32-.83,21.07-.03.95.17,1,.59.15l8.35-16.73c.22-.45.35-.94.36-1.45.23-8.47.42-16.43.6-23.88.11-4.56-.29-9.35.14-13.86,1.02-10.51,1.45-21.59,3.24-32.19,1.92-11.44,2.89-23.2,3.92-34.74.4-4.53,1.01-9.28,1.83-14.27,2.17-13.3,3.93-26.58,5.27-39.82ZM213.28,38.7c.28-.41.25-.96-.07-1.34-2.4-2.83-5.42-5.37-7.19-8.63-.99-1.84-1.89-3.89-2.68-6.15-.27-.79-.78-1.22-1.1-1.99-.89-2.19-1.84-4.33-2.86-6.45-.32-.68-.53-.64-.6.11-.27,2.68-.19,5.24.25,7.67.8,4.36,2.55,9.76,5.27,16.22.83,1.96,2.22,3.42,3.07,5.3.23.5.81.72,1.3.5.1-.04.19-.11.27-.19,1.71-1.62,3.15-3.3,4.34-5.06ZM149.99,628.95c.88-1.82.81-3.49-.19-5.01-1.09-1.63-2.35-3.44-3.77-5.42-1.19-1.65-2.6-3.1-4.22-4.36-4.09-3.15-7.88-6-11.38-8.53-.45-.32-1.09-.27-1.47.14-1.97,2.09-3.77,4.23-5.4,6.44-3.67,4.96-7.52,7.73-13.66,9.34-5.14,1.35-10.51,2.27-16.09,2.77-.2.02-.35.2-.32.4,0,.03,0,.06.01.08,1.01,3.04,2.55,5.81,3.48,8.83.97,3.13,1.86,6.45,2.68,9.98.27,1.12.94,1.81,2.02,2.1,8.61,2.27,17.06,6,25.33,11.17,2.81,1.76,6.26,4.06,10.35,6.89.26.18.6.16.83-.06,2.32-2.16,4.33-4.43,6.04-6.82,2.62-3.65,3.1-7.39,2.25-11.7-1.24-6.29.88-10.78,3.52-16.24ZM139.76,673.15c.14-.29.04-.65-.24-.83-3.5-2.22-7.23-4.03-10.82-6.08-3.96-2.26-8.14-4.56-12.54-6.91-5.96-3.17-13.06-5.38-19.48-8.63-6.63-3.37-13.66-5.86-20.64-8.35-2.31-.82-4.43-2.17-6.46-3.6-2.8-1.97-5.97-2.83-9.05-4.19-1.43-.63-2.81-1.32-4.12-2.07-5.38-3.09-10.94-5.92-16.68-8.48-4.19-1.86-7.87-4.31-12.07-6.07-.42-.17-.91-.07-1.22.25-1.04,1.07-1.92,2.35-2.65,3.83-.07.15,0,.33.14.41.02,0,.05.02.08.02.85.14,1.61.38,2.3.71,10.25,4.94,20.4,9.86,30.61,15.31,13.27,7.07,25.24,12.09,38.1,17.99,6.31,2.9,13.63,5.07,19.92,8.63,4.19,2.37,8.41,4.68,12.66,6.9,3.31,1.72,6.25,3.74,9.37,5.61.3.19.53.12.68-.2l2.1-4.28ZM126.63,341.97c.94-3.56.88-7.25-.15-11.08-1.4-5.19-7.3-9.34-11.69-11.78-1.38-.77-2.65-.63-3.8.42-4.01,3.69-7.81,7.06-11.27,11.32-2.71,3.32-5.4,6.66-8.07,9.98-2.13,2.66-4.35,6.31-6.65,10.94-1.32,2.66-2.12,5.27-2.41,7.83-.88,7.96-.85,15.68,1.98,22.64.79,1.94,1.6,3.94,2.43,5.96.36.86.71,1.73,1.05,2.61.53,1.35,1.2,2.54,2.01,3.55,1.19,1.48,3.56,1.46,3.87-.88.17-1.27.17-2.49.01-3.65-.46-3.3-1.33-6.66-2.6-10.06-1.81-4.86-2.45-10.35-1.89-16.49.6-6.71,7.7-9.86,12.62-12.93,2.73-1.71,2.79-4.37,3.4-7.2.45-2.06,3.01-2.91,4.12-.86,2.42,4.45-.61,13.48-2.7,17.74-1.29,2.62-2.5,5.22-3.64,7.81-1.42,3.22.94,6.3,4.44,4.52,8.35-4.23,6.81-15.22,12.52-21.49,2.3-2.53,5.55-5.59,6.41-8.87ZM94.11,645.27c0-.88-.17-1.76-.48-2.64-1.73-4.94-3.5-9.95-5.32-15.04-1.29-3.6-3.33-6.75-7.5-6.81-3.8-.06-7.46-.1-11-.14-.29,0-.33.1-.14.31,1.24,1.35,2.15,3.17,2.74,5.47.78,3.01,1.64,6.11,2.58,9.3.31,1.04.88,1.81,1.73,2.3,4.15,2.44,9.81,4.95,16.97,7.53.29.11.42,0,.42-.29ZM66.2,630.14c.03-.06.04-.14.04-.21-.16-3.32-1.66-7.37-5.09-8.6-5.4-1.94-9.68-3.86-12.83-5.76-4.27-2.57-8.58-4.15-13.41-2.15-.29.12-.31.28-.06.47,2.3,1.77,4.62,3.18,6.96,4.22,4.6,2.04,9.59,4.34,13.82,7.24,3.07,2.11,6.55,3.5,9.99,5.02.22.1.48,0,.58-.22Z"/>
      <path class="cls-2" d="M197.83,240.15c-.02.22-.19.38-.4.39h-.27c-.07.02-.13-.04-.14-.11-.33-5.39-.59-11.04-.78-16.94-.11-3.53.27-10.06,1.14-19.58.41-4.5.53-9.3.75-13.9.15-3.08-1.25-3.55-2.71-5.74-.12-.19-.32-.33-.53-.4-.47-.15-.96.08-1.18.5l-.47-.23c.22-.36.44-.71.67-1.04.47-.66.83-1.41,1.09-2.24,1.06-3.5,4.06-4.53,6.56-6.63,1.3-1.09,2.47-2.18,3.96-3.03,1.73-.99,3.45-2.17,5.17-3.52,1.19-.93,3.09-2.02,5.71-3.29.35-.17.47-.06.35.3-1.72,5.5-4.43,10.02-6.58,15.21-2.17,5.22-5.61,10.35-8.55,15.02-.42.67-.71,1.43-.88,2.29-.07.42.18.81.58.91l2.99.73c.27.07.37.24.32.5-2.09,10.36-3.86,19.97-5.3,28.84-.6,3.67-1.09,7.66-1.48,11.96Z"/>
      <path class="cls-2" d="M161.83,275.86c-.14-.06-.3-.09-.46-.06l-.19-1.76c3.27-.37,6.56-.39,9.71-.73,1.16-.13,1.94-.72,2.32-1.77.1-.25.03-.45-.2-.6-1.65-1.02-5.28-3.53-5.4-5.74-.23-4.46-.43-9.3,1.35-13.52,5.27-12.44,9.94-25.56,14.89-40.57,2.55-7.76,5.42-15.73,7.81-23.32.43-1.36.96-2.58,1.59-3.65l.47.23c-.03.05-.05.1-.06.15-.65,2.08-1.12,4.51-1.42,7.29-.94,8.68-.83,16.66-1.16,25.15-.3,7.94-.61,15.84-.94,23.7-.16,3.7-.93,7.35-1.07,11.06-.22,5.5-.76,11.23-1.62,17.19-.67,4.65-2.28,10.43-3.08,15.77.17,1.46.03,2.91.27,4.39.63,3.71,1.35,8.25.3,11.86-.01.05-.04.1-.06.14-.14.16-.37.19-.53.05-1.65-1.35-2.66-2.69-3.67-4.76-1.06-2.17-2.2-4.35-3.42-6.55-3.32-6.29-8.46-10.94-15.41-13.94Z"/>
      <path class="cls-2" d="M161.25,275.82c-.47.12-.76.61-.63,1.08.58,2.2,1.57,4.31,3.25,5.98,3.76,3.72,5.76,8.27,8.06,12.75,2.4,4.68,3.32,9.63,2.73,14.89-.15,1.4-.5,2.42-1.4,3.53-2.16,2.67-4.22,5.19-6.19,7.57-1.12,1.36-2.82,2.81-5.12,4.36-1.9,1.28-3.45,2.61-4.66,3.99-2.28,2.61-4.35,5.31-6.22,8.09-.03.04-.06.09-.11.12-.19.13-.45.08-.58-.12-2.35-3.49-4.17-7.2-6.74-10.49-3.5-4.46-7.14-8.65-10.95-12.55-3.37-3.45-7.73-6.07-11.81-8.74-.24-.16-.24-.32-.03-.51,2.1-1.76,4.18-3.65,6.24-5.67,2.01-1.99,4.5-3.3,6.48-5.41,1.07-1.14,2.24-2.11,3.49-2.9,2.12-1.32,3.5-3.3,5.53-4.78,3.07-2.24,5.65-4.86,8.65-7.19,2.62-2.04,3.61-4.71,7.41-5.4.84-.15,1.68-.27,2.53-.36l.19,1.76s-.08,0-.12.02Z"/>
      <path class="cls-3" d="M149.8,623.94c1.01,1.52,1.07,3.19.19,5.01-2.63,5.45-4.76,9.95-3.52,16.24.85,4.31.37,8.05-2.25,11.7-1.71,2.39-3.73,4.66-6.04,6.82-.22.22-.57.24-.83.06-4.09-2.83-7.55-5.14-10.35-6.89-8.27-5.17-16.72-8.89-25.33-11.17-1.08-.29-1.76-.99-2.02-2.1-.82-3.53-1.71-6.85-2.68-9.98-.94-3.02-2.47-5.79-3.48-8.83,0-.02-.01-.05-.01-.08-.02-.2.12-.38.32-.4,5.58-.5,10.95-1.42,16.09-2.77,6.14-1.6,9.99-4.37,13.66-9.34,1.63-2.21,3.43-4.35,5.4-6.44.39-.4,1.02-.46,1.47-.14,3.5,2.53,7.3,5.38,11.38,8.53,1.63,1.26,3.04,2.71,4.22,4.36,1.42,1.98,2.68,3.78,3.77,5.42ZM136.5,635.37c2.11-3.14,2.49-6.79,1.67-10.48-.1-.45-.49-.76-.95-.77-3.07-.04-3.37,3.31-4.14,5.47-1.94,5.47-5.63,8.68-11.08,9.64-.47.09-.63.36-.48.81.5,1.52,1.24,2.77,2.94,3.15,6.29,1.42,9.15-3.51,12.04-7.83Z"/>
      <path class="cls-1" d="M138.17,624.89c.82,3.68.44,7.34-1.67,10.48-2.89,4.32-5.76,9.25-12.04,7.83-1.7-.38-2.43-1.63-2.94-3.15-.15-.45,0-.73.48-.81,5.45-.96,9.14-4.17,11.08-9.64.77-2.16,1.06-5.5,4.14-5.47.46,0,.85.32.95.77Z"/>
      <path class="cls-3" d="M126.48,330.89c1.04,3.83,1.09,7.52.15,11.08-.86,3.28-4.12,6.35-6.41,8.87-5.71,6.27-4.17,17.26-12.52,21.49-3.5,1.78-5.86-1.3-4.44-4.52,1.14-2.59,2.35-5.19,3.64-7.81,2.09-4.25,5.12-13.29,2.7-17.74-1.11-2.04-3.68-1.19-4.12.86-.61,2.83-.67,5.49-3.4,7.2-4.92,3.07-12.02,6.22-12.62,12.93-.55,6.14.08,11.63,1.89,16.49,1.27,3.4,2.14,6.76,2.6,10.06.16,1.17.16,2.38-.01,3.65-.31,2.35-2.68,2.37-3.87.88-.81-1.01-1.48-2.2-2.01-3.55-.35-.88-.69-1.75-1.05-2.61-.83-2.03-1.64-4.02-2.43-5.96-2.83-6.96-2.86-14.68-1.98-22.64.29-2.55,1.09-5.17,2.41-7.83,2.3-4.63,4.52-8.27,6.65-10.94,2.67-3.32,5.36-6.66,8.07-9.98,3.46-4.26,7.27-7.63,11.27-11.32,1.15-1.05,2.42-1.19,3.8-.42,4.4,2.45,10.29,6.6,11.69,11.78Z"/>
      <path class="cls-1" d="M100.47,397.82c.85.3.87.65.07,1.06-.3.16-.63.22-1.01.17-.25-.04-.3-.16-.16-.37.47-.66.84-.95,1.09-.86Z"/>
      <path class="cls-2" d="M93.69,645.57c-7.16-2.58-12.81-5.09-16.97-7.53-.85-.5-1.42-1.27-1.73-2.3-.94-3.19-1.81-6.3-2.58-9.3-.59-2.3-1.5-4.12-2.74-5.47-.19-.21-.14-.31.14-.31,3.54.04,7.2.08,11,.14,4.17.06,6.21,3.21,7.5,6.81,1.83,5.09,3.6,10.1,5.32,15.04.32.88.47,1.76.48,2.64,0,.3-.14.4-.42.29Z"/>
      <path class="cls-3" d="M66.24,629.94c0,.07,0,.14-.04.21-.1.22-.36.32-.58.22-3.43-1.53-6.91-2.91-9.99-5.02-4.23-2.9-9.22-5.19-13.82-7.24-2.35-1.04-4.67-2.45-6.96-4.22-.25-.19-.23-.35.06-.47,4.83-2,9.14-.42,13.41,2.15,3.15,1.9,7.42,3.81,12.83,5.76,3.43,1.23,4.94,5.29,5.09,8.6Z"/>
      <path class="cls-2" d="M23.8,622.04c.73-1.48,1.61-2.76,2.65-3.83.32-.32.81-.42,1.22-.25,4.19,1.76,7.88,4.21,12.07,6.07,5.74,2.55,11.3,5.38,16.68,8.48,1.31.75,2.68,1.44,4.12,2.07,3.08,1.35,6.25,2.22,9.05,4.19,2.03,1.43,4.15,2.78,6.46,3.6,6.98,2.49,14.02,4.98,20.64,8.35,6.42,3.25,13.51,5.46,19.48,8.63,4.4,2.35,8.58,4.65,12.54,6.91,3.59,2.05,7.32,3.86,10.82,6.08.28.18.38.53.24.83l-2.1,4.28c-.15.32-.38.39-.68.2-3.13-1.87-6.07-3.89-9.37-5.61-4.25-2.22-8.48-4.53-12.66-6.9-6.29-3.57-13.61-5.73-19.92-8.63-12.86-5.91-24.82-10.93-38.1-17.99-10.22-5.45-20.36-10.37-30.61-15.31-.68-.33-1.45-.57-2.3-.71-.03,0-.06-.01-.08-.02-.15-.08-.22-.26-.14-.41Z"/>
      <path class="cls-1" d="M12.05,691.45c.21,1.96-1.2,3.71-3.16,3.92l-4.89.53c-1.96.21-3.71-1.21-3.92-3.17l-.06-.5c-.21-1.96,1.21-3.71,3.17-3.92l4.89-.53c1.96-.21,3.71,1.21,3.92,3.17l.05.5Z"/>
    </g>
  </g>
</svg>