<?xml version="1.0" encoding="UTF-8"?>
<svg id="Capa_2" data-name="Capa 2" xmlns="http://www.w3.org/2000/svg" viewBox="0 0 556.94 866.22">
  <defs>
    <style>
      .cls-1 {
        fill: #1d1d1b;
      }

      .cls-2 {
        fill: #ecdba5;
      }

      .cls-3 {
        fill: #e63240;
      }
    </style>
  </defs>
  <g id="Capa_1-2" data-name="Capa 1">
    <g>
      <g>
        <path class="cls-2" d="M223.51,585.74c.25-.12.33-.45.25-.99-.08-.53-.27-1.18-.55-1.94-.29-.76-.65-1.61-1.08-2.55-.43-.94-.89-1.89-1.39-2.83l-4.06-7.94h-5.23v5.79c0,.94.01,1.97.03,3.08.02,1.11.07,2.17.15,3.17.08,1.01.19,1.9.31,2.68.12.78.27,1.29.43,1.54v.31h-14.16v-.31c.21-.25.36-.76.46-1.54s.19-1.67.28-2.68c.08-1.01.13-2.06.15-3.17.02-1.11.03-2.13.03-3.08v-21.55c0-.94-.01-1.97-.03-3.08-.02-1.11-.07-2.17-.15-3.17-.08-1.01-.17-1.9-.28-2.68s-.26-1.29-.46-1.54v-.31h21.92c2.67,0,5.03.35,7.08,1.05,2.05.7,3.78,1.65,5.17,2.86,1.39,1.21,2.44,2.63,3.14,4.25.7,1.62,1.05,3.34,1.05,5.14,0,6.07-2.75,10.08-8.25,12.01l4.25,8.25c.53,1.03,1.08,2.07,1.63,3.14.55,1.07,1.1,2.03,1.63,2.89.53.86,1.02,1.58,1.48,2.16.45.57.82.92,1.11,1.05v.31h-14.9v-.31ZM218.83,560.25c3.41,0,5.11-1.37,5.11-4.13s-1.7-3.94-5.11-3.94h-7.39v8.07h7.39Z"/>
        <path class="cls-2" d="M319.96,585.74c.16-.21.31-.6.43-1.2.12-.59.22-1.44.28-2.52.06-1.09.11-2.44.15-4.06.04-1.62.06-3.56.06-5.82v-15.27c0-2.3-.02-4.26-.06-5.88-.04-1.62-.09-2.97-.15-4.03-.06-1.07-.15-1.9-.28-2.49-.12-.59-.27-1-.43-1.2v-.31h13.24l13.79,24.69v-10.77c0-2.3-.02-4.26-.06-5.88-.04-1.62-.09-2.97-.15-4.03-.06-1.07-.15-1.9-.28-2.49-.12-.59-.27-1-.43-1.2v-.31h14.16v.31c-.16.21-.31.61-.43,1.2-.12.59-.22,1.43-.28,2.49-.06,1.07-.11,2.41-.15,4.03-.04,1.62-.06,3.58-.06,5.88v15.27c0,2.26.02,4.2.06,5.82.04,1.62.09,2.98.15,4.06.06,1.09.15,1.93.28,2.52.12.6.27,1,.43,1.2v.31h-13.24l-13.79-24.69v10.77c0,2.26.02,4.2.06,5.82.04,1.62.09,2.98.15,4.06.06,1.09.15,1.93.28,2.52.12.6.27,1,.43,1.2v.31h-14.16v-.31Z"/>
        <g>
          <path class="cls-2" d="M102.31,643.38l-14.65,56.38-43.69-42.22c-3.62,4.2-5.16,8.92-4.61,14.16.18,2.27.81,4.72,1.9,7.34,1.08,2.62,2.85,5.42,5.29,8.39,2.44,2.97,5.74,6.16,9.91,9.57,4.16,3.41,9.32,6.95,15.47,10.62,10.67,6.12,18.41,13.33,23.2,21.63,4.79,8.31,7.19,18.49,7.19,30.55,0,6.65-.64,12.5-1.9,17.57-1.27,5.07-2.9,9.53-4.88,13.37-1.99,3.85-4.34,7.13-7.06,9.84-2.71,2.71-5.43,5.03-8.14,6.95-6.51,4.2-13.84,6.82-21.98,7.87L0,798.62l14.65-56.38,43.69,42.22c3.62-4.2,5.24-8.92,4.88-14.16-.18-2.27-.81-4.72-1.9-7.34-1.08-2.62-2.9-5.46-5.43-8.52-2.54-3.06-5.84-6.25-9.91-9.57-4.07-3.32-9.27-6.82-15.6-10.49-10.68-6.12-18.41-13.33-23.2-21.63-4.8-8.3-7.19-18.49-7.19-30.55,0-6.64.63-12.5,1.9-17.57,1.26-5.07,2.94-9.53,5.02-13.37,2.08-3.84,4.43-7.17,7.06-9.96,2.62-2.79,5.29-5.07,8.01-6.82,6.51-4.2,13.84-6.82,21.98-7.87l58.35,16.78Z"/>
          <path class="cls-2" d="M196.72,628.29l27.81,182.85h-41.72s-3.61-31.93-3.61-31.93l-26.53-5.41-4.38,37.34h-41.72s27.82-182.85,27.82-182.85l31.16,3.86,31.16-3.86ZM175.09,743.66l-9.53-81.38-9.01,77.78,18.54,3.6Z"/>
          <path class="cls-2" d="M300.32,690.8h40.01s-8.76,45.13-8.76,45.13l-31.26-6.18v126.94s-44.88,9.53-44.88,9.53v-136.46s-30.08,5.96-30.08,5.96l-8.76-44.91h38.84s0-76.38,0-76.38l44.88-2.58v78.96Z"/>
          <path class="cls-2" d="M391.38,632.15l31.16-3.86,27.82,182.85h-41.72l-4.38-37.34-26.53,5.41-3.61,31.93h-41.72l27.81-182.85,31.16,3.86ZM420.23,594.8l-36.05,25.76,5.15-28.33,30.9,2.57ZM400.4,740.06l-9.01-77.78-9.53,81.38,18.54-3.6Z"/>
          <path class="cls-2" d="M556.94,630.86v180.28h-41.72v-27.81l-30.13-95.03,9.53,122.85h-41.72v-180.28h41.72l27.3,86.28-6.7-86.28h41.72Z"/>
        </g>
        <path class="cls-2" d="M298.76,555.45v-.03c-.61-1.56-.92-3.22-.92-4.89v-8.78s-.46.82-.46.82c-.79,1.43-1.72,2.78-2.76,4.03-.54.65-1.53.76-2.19.24-1.49-1.16-3.16-2.13-5.03-2.88-2.71-1.09-5.71-1.63-8.99-1.63s-6.21.55-8.9,1.63c-1.86.75-3.52,1.72-5,2.87-.67.52-1.65.42-2.2-.24-1.05-1.26-1.98-2.62-2.78-4.06l-.44-.79v8.79c0,1.67-.31,3.33-.91,4.89v.02c-1.06,2.71-1.58,5.71-1.58,8.99s.52,6.29,1.57,9.02c1.05,2.73,2.52,5.07,4.43,7.02,1.91,1.95,4.21,3.47,6.9,4.56,2.69,1.09,5.65,1.63,8.9,1.63s6.28-.54,8.99-1.63c2.71-1.09,5.02-2.61,6.93-4.56,1.91-1.95,3.39-4.29,4.43-7.02,1.05-2.73,1.57-5.74,1.57-9.02s-.52-6.28-1.57-8.99ZM287.03,569.21c-.45,1.46-1.08,2.7-1.88,3.73-.8,1.03-1.78,1.83-2.92,2.4-1.15.58-2.42.86-3.82.86s-2.6-.29-3.72-.86c-1.13-.57-2.09-1.37-2.89-2.4s-1.43-2.27-1.88-3.73c-.45-1.46-.68-3.05-.68-4.77s.22-3.3.68-4.74c.45-1.44,1.08-2.66,1.88-3.66.8-1.01,1.76-1.8,2.89-2.37,1.13-.58,2.37-.86,3.72-.86s2.67.29,3.82.86c1.15.57,2.12,1.36,2.92,2.37.8,1.01,1.43,2.23,1.88,3.66.45,1.44.68,3.02.68,4.74s-.23,3.31-.68,4.77Z"/>
      </g>
      <g>
        <path class="cls-1" d="M445.72,473.65c.2.96.24,1.74.12,2.33-1.05,2.14-4.31,2.17-6.37,1.89-2.99-.42-3.82-4.18-.77-5.21,2.82-.95,5.16-.62,7.02.99Z"/>
        <path class="cls-3" d="M453.66,255.11s.03,0,.05,0c.12.03.2.15.17.28-.51,2.23-1.28,4.5-2.32,6.8-2.27,5.05-5.29,10.58-9.03,16.59-1.72,2.76-3.97,4.77-5.57,7.52-.15.27-.22.25-.21-.06.13-2.71.12-5.45,0-8.25-.03-.7-.16-1.35-.39-1.97-.28-.76-.45-1.53-.51-2.31,0-.02,0-.05-.01-.07-.02-.06,0-.11.06-.13.13-.04.17-.12.12-.25l-.78-2.3c-.06-.19-.19-.29-.4-.31-.67-.04-1.33.2-1.99.74-3.44,2.83-7.13,6.04-11.04,8.39-2.4,1.44-4.75,3.08-7.23,4.43-9.86,5.37-19.8,8.68-29.81,9.93-5.99.75-12.65.83-19.99.23-1.21-.1-2.36-.16-3.48-.18-1.81-.04-3.71-.41-5.67-1.12-.33-.12-.47-.35-.43-.7.15-1.4.81-2.5,1.97-3.3.35-.24.73-.35,1.16-.35.87,0,1.72.07,2.57.21,7.91,1.28,14.89,1.7,20.94,1.24,4.62-.35,9.97-1.35,16.05-3.03,3.98-1.09,8.17-3.06,12.14-4.57,2.47-.94,5.17-2.27,8.11-4.01,4.06-2.39,8.14-5.23,12.24-8.52,1.05-.84,1.86-1.74,2.45-2.72.09-.14.13-.31.11-.48-.19-2.03-1.22-3.52-3.07-4.49-2.15-1.12-4.26-2.25-6.32-3.39-1.28-.71-2.34-1.72-3.65-2.35-.22-.1-.21-.18.03-.22,3.91-.63,7.81-1,11.68-1.13,6.55-.21,13.9-.26,22.05-.16Z"/>
        <path class="cls-2" d="M405.06,430.89s0,0,.01,0c.06-.04.14-.02.18.04l2.08,3.4c.04.07.03.17-.04.22-3.38,2.54-6.86,4.77-10.45,6.69-2.45,1.31-4.15,2.97-6.45,4.44-2.14,1.36-3.96,2.84-6.3,4-1.53.76-2.72,2.19-4.06,3.28-5.6,4.51-11.2,8.36-16.8,11.57-.98.56-2.2.91-3.66,1.05-3.92.39-7.86.49-11.79.34l-20.2-.52c-.39,0-.61-.21-.67-.6-.05-.39-.11-.79-.17-1.23-.05-.39.12-.58.51-.59l20.9-.24c3.76-.08,7.09-.27,9.97-.57,3.17-.34,5.09-1.91,7.66-3.62.67-.44,1.28-.91,1.86-1.4,1.83-1.57,3.69-3.02,5.55-4.37,1.08-.78,1.95-1.73,3.02-2.53,2.79-2.08,5.36-3.76,7.7-5.05.97-.53,1.84-1.14,2.59-1.84,1.47-1.36,3.2-2.24,4.8-3.48,2.09-1.64,4.49-2.83,6.58-4.38,2.44-1.82,4.86-2.88,7.17-4.6Z"/>
        <path class="cls-2" d="M379.37,390.01c.18.1.23.26.17.47-.03.13-.1.24-.2.33-2.58,2.31-5.36,4.35-8.31,6.12-.86.51-2.07.83-2.72,1.27-9.8,6.65-20.05,12.66-30.03,19.03-.08.05-.19.03-.25-.05l-24.64-39.07c-.11-.17-.13-.35-.08-.55.51-1.86,1.02-3.74,1.29-5.64,3.05-21.01,6.09-41.83,9.1-62.46.04-.29.14-.31.29-.06.44.71.78,1.45,1.27,2.12,2.94,3.98,6.09,7.65,9.45,11.01,1.72,1.72,1.3,6.24.98,8.5,0,.02,0,.04,0,.07.02.09.12.15.21.12,1.18-.29,2.4-.13,3.65.47,2.62,1.27,5.57,2.98,6.98,5.64,1.28,2.42,2.5,4.88,3.66,7.39.42.9.89,1.77,1.44,2.59,3.27,4.99,6.89,10.22,10.85,15.71,1.73,2.39,3.23,4.64,4.5,6.76,1.43,2.39,2.91,4.81,4.42,7.25.83,1.32,2.41.72,2.47,2.78,0,.15-.04.27-.15.36-.03.03-.07.05-.11.07-.12.07-.16.16-.11.29.05.12.13.24.24.34.49-.11.92.1,1.28.63,1.62,2.34,3.1,4.77,4.44,7.28.22.42.19.84-.11,1.25Z"/>
        <path class="cls-1" d="M377.76,413.76c1.49.64,3.14,1.31,4.05,2.73,2.5,3.85,3.21,7.83,2.15,11.95-.54,2.09-2.07,3.37-4.22,2.05-.7-.43-.55-1.32-.2-1.91.72-1.18,1.84-3.25,1.54-4.59-.83-3.69-2.43-6.38-4.15-9.52-.11-.2-.06-.46.11-.61.2-.18.44-.21.71-.09Z"/>
        <path class="cls-2" d="M371.72,449.37s.02.02.03.02c.07.07.08.2,0,.28-.53.57-1.1,1.08-1.72,1.54-2.43,1.8-4.52,3.43-6.28,4.9-.24.21-.6.22-.86.04-2.2-1.54-4-3.51-6.65-4.46-2.33-.83-4.6-1.54-6.82-2.1-.28-.07-.3-.18-.04-.33.42-.23.81-.46,1.13-.82,1.45-1.55,2.97-3.14,4.55-4.78.99-1.02,2.14-1.43,3.43-1.21,2.23.37,4.31,1.18,6.24,2.43,2.19,1.42,4.53,2.92,6.99,4.49Z"/>
        <path class="cls-3" d="M377.76,413.76c-.27-.11-.5-.08-.71.09-.17.15-.22.41-.11.61,1.71,3.13,3.31,5.83,4.15,9.52.31,1.34-.82,3.41-1.54,4.59-.36.59-.5,1.48.2,1.91,2.15,1.32,3.68.04,4.22-2.05,1.06-4.12.34-8.1-2.15-11.95-.91-1.42-2.56-2.09-4.05-2.73ZM370.36,443.08c-2.91-2.07-6.25-3.7-9.37-5.41-.02-.01-.05-.03-.07-.06-.06-.09-.04-.22.05-.29.35-.24.63-.5.84-.8,1.11-1.54,2.11-3.13,3.46-4.49,2.17-2.19,4.37-4.38,5.95-7.02,1.83-3.06,2.69-6.58,4.47-9.65.64-1.11,1.19-2.08,1.33-3.4.33-3.18,1.37-6.43,3.13-9.76.11-.2.22-.21.33,0,.98,1.65,2.1,3.23,3.03,4.93,1.34,2.47,2.87,4.84,4.59,7.11.32.42.68.76,1.08,1.01,2.58,1.67,5.41,3.45,6.99,6.21,1.34,2.34,2.17,4.58,2.49,6.69.39,2.58-5.78,5.76-7.55,6.97-3.17,2.17-6.93,2.96-10.06,5.09-2.1,1.42-4.04,2.89-5.82,4.39-1.28,1.08-3.74-.73-4.86-1.53Z"/>
        <path class="cls-3" d="M357.86,458.47c-2.75.29-5.19.44-7.33.45-5.93.04-12.17.11-18.74.19-.85,0-1.01-.31-.46-.97l.5-.61c.6-.72,1.47-1.17,2.41-1.24,3.81-.25,7.39-.78,10.74-1.59,2.68-.64,7.83-.76,10.1,1.1.93.76,1.87,1.57,2.84,2.45.02.02.04.05.04.08,0,.07-.04.13-.11.14Z"/>
        <path class="cls-2" d="M330.71,112.18s.07.05.09.08c.07.11.04.26-.07.34-.98.65-1.93,1.39-2.71,2.27-3.99,4.47-6.92,9.58-8.8,15.33-1.1,3.38-1.9,6.58-2.39,9.6-.47,2.89-.78,6.37-.93,10.47-.07,2.05-.78,3.96-.91,6.02-.27,4.3-.62,8.91-1.05,13.84-.31,3.59-.56,6.88-.76,9.85-.37,5.71-.79,11.39-1.25,17.04-.09,1.16-.07,2.3.08,3.41.32,2.41-.05,4.94-1.13,7.59-.46,1.14-1.4,2.04-2.01,3.18-1.5,2.81-3.57,4.83-6.21,6.07-1.53.72-3.79.51-5.49.42-2.41-.14-4.59-.94-6.52-2.4-.62-.47-1.11-1.12-1.75-1.56-.17-.11-.31-.08-.43.07l-2.03,2.69c-.11.14-.11.29-.02.44,1.36,2.21,3.38,3.65,6.07,4.31,2.36.58,4.58,1.36,6.96,1.83,1.33.27,2.67.55,4.03.84.15.03.21.12.16.27l-1.41,4.4c-.06.2-.19.29-.4.29-5.44-.02-11.53-1.17-15.91-4.48-5.51-4.17-9.82-9.37-12.92-15.59-1.21-2.44,1.1-3.96,1.58-6.08.68-3.03,1.65-5.99,2.89-8.86,1.83-4.21,2.74-8.45,4.17-12.71,1.56-4.64,3-9.27,4.32-13.9.31-1.08.49-2.65.85-3.95,1.06-3.75,2.14-7.39,2.98-11.26.91-4.19,2.26-8.34,4.04-12.48.77-1.78.75-4.63.94-6.58.03-.32.27-.58.58-.66l4.96-1.2c.36-.08.59-.43.52-.8-.13-.75-.29-1.49-.58-2.19-.85-1.99-1.21-4.02-1.05-6.11.11-1.47-.4-3.18,0-4.5.75-2.46,1.21-4.97,1.8-7.51.96-4.12,1.94-8.17,2.94-12.16,0-.02.02-.04.03-.07.07-.13.24-.17.37-.1,8.6,4.9,17.39,9.72,26.36,14.46Z"/>
        <path class="cls-2" d="M327.36,265.36l4.04-3.89c.23-.21.52-.34.83-.34,1.06-.02,2.14-.1,3.24-.24,4.41-.57,7.49-4.32,10.13-7.57,2.56-3.14,5.59-6.1,9.09-8.88,1.21-.96,2.61-1.57,4.07-2.08.49-.17.87-.03,1.15.4l7.47,11.65c.15.23.14.45-.03.67-.1.13-.23.24-.39.32-2.68,1.4-5.5,2.44-8.11,3.89-1.46.82-2.78,1.54-4.42,2-4.94,1.38-9.76,2.74-14.46,4.1-.54.16-1.1.24-1.67.24-3.58.03-7.14.03-10.67,0-.11,0-.2-.03-.26-.08-.05-.05-.05-.1,0-.16Z"/>
        <path class="cls-2" d="M328.07,181.69c-.95.8-1.95,1.47-2.99,2.02-.58.32-.68.2-.3-.34.37-.51.69-1.06.96-1.64.28-.57.59-1.09.94-1.57,1.23-1.64,2.43-3.3,3.6-4.99.62-.89,1.73-1.31,1.86-2.47.23-2.12-2.2-2.65-3.61-1.42-1.42,1.25-2.27,2.98-3.75,4.27-1.24,1.08-2.37,2.38-3.41,3.89-.16.23-.25.21-.28-.07-.48-5.19-.99-10.34-1.53-15.46-.44-4.26-.61-8.45-.49-12.59.2-7.09,2.08-14.06,4.07-20.88.64-2.18,1.64-4,2.44-6.02,1.14-2.88,2.33-5.53,5.09-7.05,1.94-1.07,3.42-4.12,6.12-2.25,2.67,1.85,4.43,3.63,5.6,6.88,2.23,6.21,4.78,12.2,6.36,18.63,2.08,8.48,4.3,16.91,6.65,25.29,1.84,6.58,3.39,13.06,5.05,19.6,1.04,4.11,1.79,8.39,2.8,12.61.13.53.06,1.09-.17,1.58-2.22,4.58-4.55,9.43-6.98,14.57-3.48,7.37-7.46,14.53-11.21,21.83-2.46,4.78-6.05,9.45-9.08,13.97-.08.12-.24.17-.38.09-1.53-.79-3.11-1.72-4.74-2.8-1.87-1.24-3.8-1.88-5.68-2.92-4.01-2.23-7.83-4.57-11.45-6.99-2.31-1.55-6.61-4.89-6.73-7.9-.08-2.03.26-3.81,1.03-5.37,1.44-2.92,3.15-5.87,5.12-8.86.55-.83.75-1.72,1.23-2.56,1.22-2.16,2.46-4.3,3.71-6.41,1.57-2.63,2.65-5.55,3.64-8.32.29-.81.28-1.79-.02-2.96-.21-.79,0-1.51-.19-2.26,0-.02,0-.04,0-.06,0-.16.12-.29.27-.29.92-.03,1.27-.87,2.02-1.33,2.17-1.36,4.35-2.64,6.54-3.86,1.79-.99,3.21-1.81,4.02-3.96.15-.39.14-.76-.03-1.12-.34-.73-.38-1.54-1.14-1.97-1.54-.87-3.77.52-4.94,1.5Z"/>
        <path class="cls-3" d="M309.24,273.76c-.76-1.23-1.3-2.59-1.64-4.09-.71-3.14-1.2-6.52-1.47-10.14-.16-2.12-.36-4.13-.61-6.01-.24-1.82-.37-3.55-.39-5.19-.02-1.75.02-3.5.13-5.26.04-.57.18-1.14.44-1.71.16-.35.12-.7.11-1.08,0-.11.02-.22.07-.32.16-.34.57-.47.91-.31.8.39,1.45.85,1.95,1.41,3.87,4.24,8.13,7.71,12.39,11.41.2.17.23.48.06.69-1.77,2.25-3.5,4.38-4.99,6.89-.85,1.44-1.83,3.7-2.95,6.76-.46,1.26-1.11,2.48-1.71,3.67-.58,1.15-1.49,2-1.91,3.24-.01.05-.05.09-.09.12-.1.06-.24.03-.3-.07Z"/>
        <path class="cls-3" d="M287.52,44c8.04-.28,7.02,10.57,5.54,15.18-.57,1.79-1.85,3.43-2.93,4.96-2.45,3.45-7.5,5.82-11.78,4.22-.17-.06-.26-.18-.29-.36-.12-.76-.14-1.43-.06-2.02.69-4.9,1.18-9.81,1.73-14.75.25-2.22,2.15-4.28,3.86-5.63,1.31-1.03,2.62-1.57,3.93-1.62ZM290.07,51.64c.45-1.14.3-2.6-1.14-2.76-2.05-.22-3.6.57-4.65,2.38-.92,1.58-.35,3.87-.63,5.66-.23,1.45-.81,3.07-1.74,4.86-.45.88-.47,1.75-.07,2.62.09.19.31.27.49.19,2.51-1.06,4.12-2.66,4.81-4.8.91-2.79,1.88-5.51,2.92-8.16Z"/>
        <path class="cls-2" d="M291.74,88.36c.59.3,1.12.66,1.6,1.07,2.13,1.86,4.3,3.75,6.49,5.67.17.15.24.38.19.6-1.25,5.07-2.44,10.78-3.53,17.13-.26,1.53-.85,2.98-.99,4.58-.21,2.51-.34,4.88-.37,7.09-.02.95.25,1.81.35,2.74.06.6-.2.92-.81.97l-5.1.43c-.36.03-.46.21-.33.54.55,1.29,1.58,2.33,1.67,3.77.24,3.6-1.13,6.72-2.14,9.99-1.56,4.99-2.84,11.27-4,15.11-.48,1.6-.94,3.22-1.38,4.87-.81,3.02-1.68,5.8-2.55,8.74-.8,2.67-2.16,5.06-2.93,7.72-.18.62-.41,1.21-.69,1.77-.28.56-.47,1.15-.57,1.76-.74,4.6-2.02,9.28-3.84,14.05-.16.42-.3.42-.42-.02-.28-1.07-.2-2.34-.24-3.18-.57-12.25.37-24.58,3.02-36.46.36-1.6.61-3.39.76-5.38.33-4.39,1.07-9.02,2.23-13.91.11-.46.4-.72.87-.78l8.31-.97h.02c.2-.04.34-.23.3-.43-.7-3.86-1.35-7.59-1.97-11.19-.76-4.5-1.08-10.04.52-14.41.29-.79.13-1.5.33-2.26.94-3.77,2.05-8.08,3.34-12.93.53-2,1.03-4.16,1.49-6.49,0-.02.01-.04.02-.06.06-.13.22-.18.35-.11Z"/>
        <path class="cls-2" d="M246.97,254.92c-2.08,3.88-3.76,7.83-6.14,11.07-.44.6-.61.53-.5-.21.72-4.89,1.1-9.79,1.14-14.72-.14-1.13-.22-2.26-.22-3.38,0-.42.09-1.05.25-1.88.12-.63.18-1.26.19-1.92.1-1.83.28-3.63.21-5.46-.15-3.61-.16-6.08-.03-7.43.2-2.08.35-4.07.46-5.97.01-.22.13-.32.34-.32.92.03,1.8-.07,2.64-.3,1.22-.33,2.18.29,3.36.08,1.91-.32,4.06-.48,6.44-.48,1.67,0,3.3-.11,4.89-.34,3.27-.46,6.51-.78,9.73-.93.19,0,.39,0,.57.02.45.06.49.22.11.48-3,2.1-6.09,4.29-9.26,6.57-.71.51-.99,1.25-.84,2.22.02.16.09.3.2.42.76.88,1.55,1.07,2.38.59,2.41-1.39,4.54-2.75,6.38-4.06,2.4-1.69,4.68-3.31,6.86-4.86.4-.28.82-.55,1.24-.8.13-.07.3-.05.4.05,2.24,2.32,4.7,4.29,7.4,5.92,2.06,1.24,4.35,1.86,6.58,2.65.03,0,.05.03.06.05.03.06.01.13-.04.17-1.25.75-2.41,1.53-3.44,2.34-1.85,1.45-3.45,3.34-5.26,4.95-.81.72-1.51,1.45-2.1,2.19-1.37,1.72-2.85,3.44-4.42,5.17-1.07,1.19-2.09,2.57-3.05,4.16-1.2,1.98-2.33,3.89-3.39,5.75-2.15,3.75-4.38,8.6-6.67,14.52-.28.73-.55,1.41-.83,2.05-.63,1.47-1.98,3.22.32,4.27.15.07.31.1.47.1.99,0,1.68-.37,2.07-1.13,1.58-3.1,2.94-6.3,4.2-9.47,2.28-5.72,5.09-11.01,8.43-15.88,1.84-2.68,4.45-5.22,6.63-7.75,1.54-1.78,3.38-3.56,5.51-5.34,1.52-1.26,3.1-2.28,4.75-3.07l4.6.06c.18,0,.28.09.3.27l.81,5.65c.3,4.31.47,8.64.53,12.97.02,1.7.35,5.07.98,10.11.74,5.88,1.27,10.28,5.06,14.27.12.13.14.26.05.41-2.04,3.61-4.11,7.03-6.23,10.27-1.11,1.7-2.11,3.52-3.03,5.45-3.38,7.15-6.88,14.56-10.49,22.2-1.43,3.03-2.9,5.97-4.41,8.82-11.96,22.62-23.43,44.58-34.41,65.89-.8,1.56-1.64,3.17-2.51,4.84-4.1,7.8-8.26,15.97-12.5,24.52-1.2,2.42-2.59,5.14-4.19,8.15,0,0,0,.01,0,.02-.07.11-.22.14-.34.07-5.76-3.89-11.24-7.59-16.44-11.1-1.32-.89-2.32-2.14-3.82-2.74,0,0-.02,0-.03-.01-.15-.09-.21-.28-.12-.43,3.58-6.19,6.93-12.05,10.04-17.57.45-.81.38-1.8-.2-2.52-.1-.13-.24-.23-.41-.3-1.12-.45-2.01-.15-2.65.91-1.48,2.44-3,4.73-4.56,6.87-1.98,2.72-3.84,5.95-5.6,9.69,0,.01,0,.03-.02.04-.2.38-.67.52-1.05.31-4.88-2.66-9.59-5.23-14.14-7.7-1.39-.76-2.74-1.6-4.07-2.53-1.59-1.12-3.36-2.04-5.32-2.77-.19-.07-.24-.19-.15-.38,2.37-4.88,4.74-9.75,7.09-14.61.23-.46.45-.91.68-1.35,2.04-3.89,4.08-7.68,5.66-11.44.19-.44.42-.85.67-1.22.89-1.26,1.32-2.72,2.08-4.06,2.68-4.78,5.26-9.59,7.73-14.43.92-1.82,2.21-3.7,2.99-5.42,6.39-14.03,12.98-27.64,19.58-41.73,1-2.13,2.09-4.33,3.29-6.59,1.06-1.99,2.07-4.25,3.02-6.77,1.48-3.87,3.07-7.91,4.78-12.09.54-1.31,1.67-2.04,2.32-3.29,3-5.8,6.25-12.17,9.74-19.11,1.14-2.26-2.13-3.92-3.3-1.75Z"/>
        <path class="cls-1" d="M288.93,48.88c1.43.15,1.59,1.62,1.14,2.76-1.04,2.65-2.01,5.37-2.92,8.16-.69,2.14-2.3,3.74-4.81,4.8-.18.08-.4,0-.49-.19-.41-.87-.39-1.74.07-2.62.93-1.79,1.51-3.41,1.74-4.86.28-1.79-.29-4.09.63-5.66,1.05-1.81,2.6-2.6,4.65-2.38Z"/>
        <path class="cls-2" d="M272.61,218.62c0,.08-.06.15-.15.15l-11.7.13h-.02c-.08-.01-.14-.1-.12-.18l.97-5.44c.01-.07.07-.12.14-.13l7.08-.28c.06,0,.11.02.14.07l3.64,5.59s.02.05.02.08Z"/>
        <path class="cls-3" d="M244.77,31.15c2.01-2.91,5.36-5.6,8.44-6.51.01,0,.03,0,.05,0,.19-.02.38.11.4.3.5,3.46,1.87,10,5.34,11.69,2.23,1.09,5.57,1.66,7.08-.38.91-1.22,1.62-2.4,2.12-3.54.79-1.78.1-4.84-.21-6.84-.04-.25.06-.33.3-.25,3.29,1.16,5.46,4.06,4.24,7.71-.58,1.76-1.14,3.56-1.66,5.39-.5,1.78.03,2.96,1.02,4.31.16.23.11.32-.17.27-1.86-.28-3.58-.54-5.15-.79-.66-.1-1.42-.49-2.27-1.19-.13-.1-.27-.16-.44-.16-7.62-.04-15.38-.1-23.27-.18-.48,0-.95.07-1.41.23-.64.22-.79.03-.46-.56,1.26-2.24,2.31-4.83,3.96-6.78.72-.85,1.41-1.76,2.08-2.73Z"/>
        <path class="cls-3" d="M259.4,114.87c1.54-2.49,3.43-4.68,5.03-7.14,1.99-3.05,4.13-6.21,6.43-9.47,2.16-3.06,4.02-6.25,6.07-9.39,1.22-1.87,2.09-4.05,3.36-6.04,1.06-1.66,2.8-2.64,5.22-2.97,1.62-.22,1.71,1.41,1.92,2.53.35,1.9.34,3.75-.02,5.55-.94,4.73-1.91,8.41-2.92,11.05-.72,1.88-1.35,3.69-1.9,5.44-1.02,3.26-2.29,6.25-3.8,8.98-.24.43-.56.72-.98.86-.54.2-.99.17-1.36-.08-4.08.4-6.61.82-7.59,1.25-1.12.5-2.23.96-3.34,1.39-.59.07-1.02.06-1.29-.03-1.59-.55-3.18-1.13-4.77-1.73,0,0-.01,0-.02,0-.06-.04-.08-.12-.04-.19Z"/>
        <path class="cls-3" d="M262.88,143.58c-1.29,1.82-2.17,3.79-3.62,5.49-.03.04-.08.08-.14.09-.15.03-.3-.05-.34-.2-.22-.8-.4-1.58-.54-2.34-.65-3.6-1.05-7.07-1.18-10.42-.2-5.26-.82-10.24-.45-15.77.02-.27.25-.47.51-.46,2.15.09,4.13.45,5.91,1.09,1.2.43,2.96.4,3.98-.3.98-.67,1.75-1.08,2.31-1.22,1.31-.33,3.71-.63,7.18-.9.2,0,.26.07.18.25-4.03,9.12-8.63,17.35-13.81,24.68Z"/>
        <path class="cls-2" d="M257.75,213.24c.19,0,.27.11.25.3l-.62,6.07c-2.42.53-4.89.65-7.4.37l-.99.04c-.12.1-.3.1-.52,0l-6.95.57s-.07,0-.1,0c-.13-.05-.21-.2-.16-.34.65-1.88,1.08-3.75,1.29-5.63.02-.14.1-.22.25-.22,4.27-.12,8.7-.49,13.3-1.09.57-.07,1.12-.1,1.66-.07Z"/>
        <path class="cls-3" d="M257.42,7.45c.5,2.79,1.25,5.47,2.23,8.07,1.62,4.26,3.38,8.35,5.27,12.27.71,1.47,1.09,3,1.14,4.61,0,.21-.09.31-.3.3-.53-.01-1-.2-1.53-.25-2.56-.24-4.35-1.64-5.39-4.19-2.31-5.73-2.48-12.04-2.34-18.25.02-.93.17-1.79.45-2.58.2-.56.36-.55.46.03Z"/>
        <path class="cls-3" d="M235.2,57.86c2.6-3.4,4.71-7.02,6.32-10.84.42-1,1.72-1.07,2.15-.03.71,1.69,1.48,3.41,2.33,5.14.55,1.12,1.44,1.73,2.67,1.83,2.32.2,4.84.31,7.57.33,1.47,0,2.67-.53,3.68-1.6,2.2-2.33,4.05-4.43,5.55-6.29.07-.08.18-.13.3-.11l7.95,1.25c.43.07.76.43.77.87.03,1.08-.15,2.07-.52,2.98-1.05,2.59-2.88,4.79-5.48,6.6-3.04,2.12-6.1,4.29-9.15,6.53-.02.01-.03.03-.04.05-.05.08-.02.19.06.24,1.73,1.02,4.34.94,6.31.98.59.01.83.31.72.88l-.35,1.9c-.19,1.05-.82,1.58-1.89,1.6-2.06.04-3.91-.43-5.56-1.42-.59-.35-.76-.21-.51.43,1.09,2.71,1.2,6.2-.62,8.76-3.02,4.25-8.05,6.07-13.09,4.59-1.41-.42-2.75-.91-4.03-1.49-.42-.19-.88-.29-1.37-.29h-.01c-.38,0-.68-.32-.68-.71.04-1.56.03-3.24-.03-5.02-.04-1.17.09-2.29.39-3.36.02-.07.09-.13.17-.13h11.27c.97,0,1.69-.42,2.16-1.27.16-.28.19-.58.08-.9-.34-1.08-1.08-1.63-2.22-1.63h-10.43c-.56,0-.8-.29-.72-.84l.38-2.47c.09-.59.58-1.05,1.18-1.11l4.08-.39c.42-.03.76-.33.87-.73.59-2.08-1.06-2.88-2.85-3.03-2.15-.18-4.56-.35-7.2-.5-.19,0-.34-.16-.36-.36,0-.16.04-.31.14-.44Z"/>
        <path class="cls-3" d="M233.69,15.05c-.3-1.67-.36-3.42-.17-5.27.05-.51.19-.54.42-.07.7,1.45,1.35,2.92,1.96,4.43.22.53.57.83.76,1.37.54,1.55,1.16,2.96,1.84,4.22,1.21,2.24,3.29,3.98,4.94,5.92.22.26.24.64.05.92-.82,1.21-1.81,2.36-2.98,3.47-.05.05-.12.1-.19.13-.34.15-.74,0-.89-.34-.58-1.29-1.54-2.29-2.11-3.64-1.86-4.44-3.07-8.15-3.62-11.14Z"/>
        <path class="cls-2" d="M237.09,245.82l-5.73,11.49c-.29.58-.42.55-.41-.1.12-4.63.12-9.67.57-14.47.49-5.21.96-10.36,1.39-15.45.32-3.78.55-7.93.68-12.46.24-7.98.47-15.82.7-23.51.13-4.57.71-9.04,1.2-13.5.12-1.09-.05-2.22.08-3.32.46-3.81.9-7.64,1.3-11.48.3-2.78.74-5.74,1.34-8.89.71-3.71,1.3-7.59,1.76-11.65.23-1.98.65-3.94,1.28-5.9.07-.22.27-.39.5-.41l5.63-.6c.17-.01.25.06.23.24-.92,9.09-2.12,18.21-3.62,27.34-.56,3.42-.98,6.69-1.25,9.8-.71,7.93-1.37,16-2.69,23.86-1.23,7.28-1.52,14.89-2.22,22.1-.3,3.1-.02,6.39-.09,9.52-.12,5.12-.25,10.58-.41,16.4,0,.35-.09.69-.25.99Z"/>
        <path class="cls-1" d="M339.57,331.69c-1.25-.61-2.47-.77-3.65-.47-.09.02-.19-.03-.21-.12,0-.02,0-.04,0-.07.32-2.26.74-6.77-.98-8.5-3.36-3.35-6.51-7.03-9.45-11.01-.5-.67-.83-1.41-1.27-2.12-.15-.25-.25-.23-.29.06-3.01,20.63-6.05,41.45-9.1,62.46-.28,1.91-.79,3.78-1.29,5.64-.05.2-.02.38.08.55l24.64,39.07c.05.08.16.11.25.05,9.98-6.37,20.23-12.38,30.03-19.03.65-.44,1.86-.76,2.72-1.27,2.95-1.77,5.73-3.8,8.31-6.12.1-.09.17-.2.2-.33.06-.21,0-.37-.17-.47.3-.42.33-.83.11-1.25-1.34-2.51-2.83-4.94-4.44-7.28-.37-.53-.8-.74-1.28-.63-.1-.1-.18-.21-.24-.34-.05-.13,0-.22.11-.29.04-.02.08-.04.11-.07.11-.09.16-.21.15-.36-.06-2.06-1.65-1.45-2.47-2.78-1.51-2.44-2.98-4.86-4.42-7.25-1.27-2.12-2.77-4.37-4.5-6.76-3.96-5.48-7.58-10.72-10.85-15.71-.54-.82-1.02-1.68-1.44-2.59-1.16-2.51-2.38-4.98-3.66-7.39-1.41-2.65-4.36-4.37-6.98-5.64ZM334.18,183.28c-.81,2.15-2.22,2.97-4.02,3.96-2.18,1.22-4.36,2.5-6.54,3.86-.74.46-1.1,1.3-2.02,1.33-.15,0-.28.13-.27.29,0,.02,0,.04,0,.06.18.75-.02,1.47.19,2.26.31,1.17.31,2.16.02,2.96-.99,2.77-2.08,5.69-3.64,8.32-1.25,2.11-2.5,4.25-3.71,6.41-.48.84-.68,1.73-1.23,2.56-1.97,2.98-3.68,5.94-5.12,8.86-.77,1.56-1.11,3.34-1.03,5.37.12,3.01,4.42,6.35,6.73,7.9,3.62,2.43,7.44,4.76,11.45,6.99,1.88,1.04,3.81,1.68,5.68,2.92,1.63,1.08,3.21,2.02,4.74,2.8.13.07.3.03.38-.09,3.03-4.52,6.62-9.18,9.08-13.97,3.75-7.3,7.73-14.46,11.21-21.83,2.43-5.13,4.75-9.99,6.98-14.57.24-.49.3-1.04.17-1.58-1.01-4.22-1.76-8.5-2.8-12.61-1.67-6.54-3.21-13.01-5.05-19.6-2.34-8.37-4.56-16.8-6.65-25.29-1.58-6.43-4.14-12.42-6.36-18.63-1.17-3.25-2.93-5.03-5.6-6.88-2.7-1.87-4.18,1.19-6.12,2.25-2.76,1.52-3.95,4.17-5.09,7.05-.8,2.03-1.8,3.84-2.44,6.02-1.99,6.82-3.86,13.78-4.07,20.88-.11,4.14.05,8.34.49,12.59.54,5.12,1.05,10.28,1.53,15.46.03.28.12.31.28.07,1.04-1.51,2.17-2.81,3.41-3.89,1.48-1.29,2.33-3.03,3.75-4.27,1.41-1.23,3.84-.7,3.61,1.42-.13,1.16-1.24,1.58-1.86,2.47-1.17,1.68-2.37,3.34-3.6,4.99-.35.47-.66,1-.94,1.57-.27.58-.59,1.12-.96,1.64-.39.54-.29.66.3.34,1.04-.55,2.04-1.23,2.99-2.02,1.17-.97,3.4-2.37,4.94-1.5.77.43.8,1.25,1.14,1.97.17.36.18.73.03,1.12ZM259.32,64.5c3.05-2.23,6.11-4.41,9.15-6.53,2.6-1.81,4.43-4.01,5.48-6.6.38-.91.55-1.91.52-2.98,0-.43-.33-.8-.77-.87l-7.95-1.25c-.11-.01-.22.03-.3.11-1.5,1.86-3.34,3.96-5.55,6.29-1,1.06-2.21,1.6-3.68,1.6-2.73-.01-5.25-.12-7.57-.33-1.23-.1-2.12-.72-2.67-1.83-.85-1.73-1.63-3.44-2.33-5.14-.43-1.04-1.73-.97-2.15.03-1.61,3.82-3.72,7.44-6.32,10.84-.1.13-.15.28-.14.44.01.19.17.35.36.36,2.64.15,5.04.32,7.2.5,1.79.15,3.43.95,2.85,3.03-.11.4-.46.69-.87.73l-4.08.39c-.6.06-1.08.52-1.18,1.11l-.38,2.47c-.08.55.16.83.72.83h10.43c1.14,0,1.88.55,2.22,1.64.1.32.07.62-.08.9-.47.84-1.19,1.26-2.16,1.26h-11.27c-.08,0-.15.06-.17.13-.3,1.07-.42,2.19-.39,3.36.06,1.78.07,3.46.03,5.02,0,.39.3.7.68.71h.01c.48,0,.94.1,1.37.29,1.27.58,2.62,1.07,4.03,1.49,5.04,1.48,10.06-.33,13.09-4.59,1.81-2.55,1.7-6.04.62-8.76-.25-.64-.08-.79.51-.43,1.66.98,3.51,1.46,5.56,1.42,1.07-.01,1.69-.55,1.89-1.6l.35-1.9c.11-.57-.13-.87-.72-.88-1.98-.04-4.58.04-6.31-.98-.08-.05-.11-.16-.06-.24,0-.02.02-.04.04-.05ZM230.85,126.26c.15.04.28.14.37.27,1,1.51,1.96,1.83,1.86,3.94-.15,3.16-.23,6.45-.51,9.55-.59,6.54-.85,11.03-.78,13.45.13,4.06.31,7.93.53,11.64,0,.05.04.09.09.08h.19c.15-.01.26-.13.28-.28.27-2.95.61-5.69,1.02-8.21.99-6.09,2.21-12.69,3.64-19.8.04-.18-.03-.3-.22-.35l-2.06-.5c-.28-.06-.45-.34-.4-.62.11-.59.32-1.11.6-1.57,2.02-3.21,4.39-6.73,5.87-10.32,1.48-3.57,3.34-6.67,4.52-10.44.08-.25,0-.32-.24-.21-1.8.87-3.1,1.62-3.92,2.26-1.18.93-2.36,1.73-3.55,2.42-1.02.58-1.82,1.33-2.72,2.08-1.72,1.44-3.77,2.15-4.51,4.55-.17.57-.42,1.09-.75,1.54-.16.23-.31.46-.46.71-.43.74-.8,1.58-1.09,2.51-1.64,5.21-3.61,10.69-5.36,16.01-3.4,10.31-6.61,19.32-10.23,27.86-1.22,2.9-1.08,6.22-.92,9.28.08,1.52,2.57,3.24,3.71,3.94.16.1.21.24.14.41-.27.72-.8,1.13-1.6,1.22-2.16.24-4.42.25-6.67.5-.58.06-1.16.14-1.73.25-2.61.47-3.29,2.3-5.09,3.71-2.06,1.61-3.83,3.4-5.94,4.94-1.39,1.02-2.34,2.38-3.79,3.29-.86.54-1.66,1.21-2.4,1.99-1.35,1.45-3.07,2.35-4.45,3.72-1.41,1.39-2.84,2.69-4.28,3.89-.15.13-.14.24.02.35,2.8,1.83,5.8,3.63,8.11,6,2.61,2.68,5.12,5.56,7.52,8.62,1.77,2.26,3.01,4.81,4.63,7.2.09.13.27.17.4.08.03-.02.05-.05.07-.08,1.28-1.91,2.7-3.76,4.27-5.56.83-.95,1.9-1.86,3.2-2.74,1.58-1.06,2.75-2.06,3.51-2.99,1.35-1.63,2.77-3.36,4.25-5.2.61-.76.85-1.46.96-2.42.4-3.61-.23-7.01-1.88-10.22-1.58-3.07-2.95-6.2-5.53-8.76-1.16-1.15-1.84-2.59-2.23-4.11-.08-.32.11-.66.43-.74.02,0,.05,0,.08-.01.11-.01.22,0,.32.04,4.77,2.07,8.3,5.26,10.58,9.58.84,1.51,1.62,3.01,2.35,4.5.69,1.42,1.39,2.34,2.52,3.27.11.09.27.07.37-.03.02-.02.03-.06.04-.09.72-2.49.22-5.6-.21-8.15-.17-1.01-.07-2.01-.19-3.01.55-3.67,1.66-7.63,2.11-10.83.59-4.09.96-8.02,1.11-11.8.1-2.55.63-5.05.74-7.59.22-5.4.43-10.82.64-16.27.22-5.83.15-11.3.8-17.27.21-1.91.53-3.58.98-5,0-.03.02-.07.04-.1.15-.29.48-.45.81-.35ZM457.4,251.05c2.34.24,3.13,2.06,2.07,4.06-2.46,4.64-4.74,9.18-6.86,13.61-3.13,6.57-6.55,12.16-10.96,17.78-1.64,2.09-3.65,4.15-6.01,6.18-.67.57-1.09,1.01-2.03,1.12-.23.03-.44-.13-.46-.37,0-.01,0-.03,0-.04-.06-5.14-.28-10.25-.66-15.33,0-.12-.11-.21-.23-.2-.02,0-.04,0-.07.01-.86.38-1.68.85-2.46,1.43-2.86,2.13-5.52,4.24-8.59,6.01-6.11,3.52-11.13,6.04-15.07,7.56-4.06,1.57-9.02,2.98-14.88,4.23-5.82,1.25-12.32,1.79-19.53,1.64-7.08-.15-13.45-.99-19.11-2.51-7.64-2.06-15.08-5.16-22.34-9.32-1.74-1-3.3-2.09-4.68-3.27-3.11-2.65-6.23-4.74-8.7-8.25-.25-.35-.74-.44-1.09-.19-1.17.82-2.07,1.98-2.68,3.46-.69,1.69-1.22,3.15-1.58,4.37-.04.16-.04.33,0,.48.24.8.63,1.55,1.18,2.26,2.98,3.91,6,7.7,8.59,11.87,3.55,5.72,7.26,11.44,11.16,16.88,1.2,1.67,2.63,3.33,4.31,4.98,1.97,1.93,2.2,4.71,2.56,7.29.1.74.57,1.37,1.24,1.68,1.55.73,3.08,1.43,4.59,2.11,1.37.62,2.33,2.01,3.08,3.32,1.99,3.46,4.06,6.83,6.21,10.11,3.74,5.69,7.41,11.31,11.41,16.87,2.58,3.58,5.12,7.1,7.62,10.57,1.42,1.98,2.58,3.99,3.73,6.08,2.2,4.01,5.28,7.22,7.12,11.49.3.69.02,1.37-.42,1.9-.99,1.19-2.06,2.39-3.19,3.59-.23.24-.22.48,0,.71,1.96,1.96,2.95,4.62,4.39,6.93,1.73,2.77,3.43,5.49,5.1,8.19,1.87,3.02,5.17,3.85,7.45,6.32,2.65,2.88,4.03,6.48,5.08,10.28.07.26.33.41.58.34.03,0,.06-.02.08-.03.9-.43,2.82-1.44,3.61-.52,2.23,2.57,4.12,5.41,5.66,8.5.85,1.71,2.02,3.23,2.94,4.89.44.81.3,1.54-.44,2.2-4.07,3.67-8.33,6.83-13.26,9.83-3.35,2.04-6.72,4.27-10.12,6.7-1.48,1.06-2.19.03-3.28-1.17-.93-1.03-1.86-2.07-2.78-3.11-.08-.08-.21-.09-.3-.01,0,0,0,0-.01,0-4.13,4.36-8.37,8.43-12.72,12.22-1.65,1.43-3.49,2.62-5.38,3.77-.49.31-.7.73-.61,1.25.04.24.25.41.48.41,16.94.05,34.95.11,54.01.2,2.24,0,5.25-.29,5.29,2.97.02,1.4-.7,2.14-2.16,2.23-3.01.19-6.77,0-8.98,0-50.16-.12-100.33-.14-150.5-.06-2.3,0-4.54-.15-6.75-.12-16.15.22-36.9.26-62.25.12-4.1-.02-7.84-.02-11.24,0-13.86.06-27.41.09-40.63.11-7.35,0-14.82.3-22.1.26-1.28,0-2.81-.61-3.02-2.03-.1-.71.08-1.46.56-2.26,1.17-.89,2.35-1.34,3.55-1.35,14.91-.06,29.81-.04,44.71.04,2.03,0,4.05-.02,6.06-.11,1.64.09,3.19-.16,4.64-.77.2-.08.2-.17.01-.28-.91-.5-1.57-.84-2-1.02-3.32-1.36-6.5-2.8-9.54-4.32-2.6-1.29-5.07-2.1-7.74-2.86-.5-.14-.65-.45-.44-.94.42-.97,1.02-1.89,1.81-2.75.09-.1.08-.26-.02-.36-.04-.04-.1-.06-.16-.06-2.32-.04-4.59-.15-6.83-.67-5.94-1.37-11.85-3.7-17.1-6.94-2.19-1.36-4.5-2.53-6.64-3.93-3.36-2.19-6.76-4.66-10.2-7.43-3.54-2.86-6.69-6.25-9.97-9.41-1.32-1.27-.08-3.31.87-4.94,1.04-1.78,2.15-3.63,3.35-5.53.68-1.1,1.73-.46,2.51.03.33.2.6.15.83-.15,1.38-1.82,3.09-2.86,5.13-3.12,3.14-.4,5.89,0,8.25,1.15,2.26,1.11,4.52,2.39,6.77,3.83.95.61,1.94.89,3.1.77,3-.34,6.27-.4,9.82-.2,2.98.17,5.56-.23,7.91,2.07.23.23.54.36.86.36,4.84.02,9.35-.63,13.52-1.96,2.93-.93,5.35-2.8,7.24-5.59,1.68-2.48,3.41-5.21,5.19-8.19.13-.21.08-.36-.14-.46-.66-.3-1.27-.67-1.83-1.1-1.71-1.34-3.44-2.74-5.17-4.2-.45-.39-.87-.8-1.24-1.23-1.37-1.63.82-5.26,1.66-6.88,4.01-7.68,7.52-14.73,10.53-21.15,0,0,.69-1.38,2.05-4.1.94-1.87,1.7-3.75,2.31-5.64,1.05-1.38,1.96-2.84,2.73-4.37,3.72-7.28,7.42-14.45,11.09-21.51.83-1.6,1.62-3.71,2.5-5.43,3.02-5.9,6-11.83,8.95-17.77,1.9-4.17,4.18-8.28,5.78-12.39,1.81-4.65,3.86-9.35,6.14-14.1.06-.12,0-.26-.11-.32-.03-.01-.07-.02-.11-.02l-8.09.18c-.17,0-.31-.13-.32-.3-.02-.91.05-1.77.22-2.57.74-3.44,1.66-6.99,2.26-10.42.79-4.45,1.59-8.75,2.39-12.9.86-4.44,1.38-9.18,1.56-14.23.32-8.73.74-17.65,1.27-26.77.01-.24-.16-.44-.4-.45-.04,0-.09,0-.13,0-.43.11-.83.33-1.18.66-5.42,4.94-11.11,9.69-17.15,14.13-3.14,2.31-6.45,4.81-9.92,7.52-1.28,1-4.61,3.22-6.02,2.39-1.02-.6-2.03-1.52-3.01-2.78-1.33-1.7-2.68-3.3-4.05-4.79-.17-.18-.45-.19-.64-.02-.05.05-.09.11-.12.18-.57,1.61-1.34,3.08-2.61,4.25-2.01,1.85-3.48,3.67-4.28,6.4-1.27,4.32-3.01,8.55-7.18,10.55-.16.08-.23.27-.15.43.02.04.04.07.07.1,1.38,1.27,2.73,2.48,4.05,3.61,1.31,1.14,1.94,2.5,1.89,4.1-.06,2.09-3.13,1.74-4.43,1.53-.27-.04-.34.05-.21.29.7,1.31,1.4,2.5.66,3.97-1.1,2.19-4.41,1.34-5.78.03-.61-.59-1.22-1.25-1.82-1.98-.32-.4-.51-.34-.58.16-.17,1.38-3.13,2.7-4.33,3.27-3.34,1.59-5.91-.79-7.36-3.52-2.09-3.95-4.16-8.73-4.48-13.18-.24-3.23-.29-6.52-.14-9.88.21-4.97,2.05-9.01,4.72-13.02,4.13-6.2,8.4-11.49,12.83-15.86,1.09-1.07,1.61-2.35,1.58-3.86,0-.53.41-1.16,1.24-1.87,1.55-1.31,2.92-2.58,4.12-3.79,2.18-1.76,4.27-3.54,6.27-5.33,2.26-2.02,4.35-3.78,6.27-5.32,3.03-2.41,6.05-4.91,9.06-7.51,1.85-1.6,3.21-3.41,4.4-5.52.51-.9,1.24-1.43,2.18-1.6,1.3-.22,2.79-.47,4.45-.76.47-.07.82-.48.82-.96l.04-2.5c-.03-3.55.5-6.72,1.61-9.52,1.5-3.78,3.02-7.71,4.58-11.78,1.54-4.01,2.77-8.17,4.37-12.09,1.36-3.33,2.02-6.9,3.24-10.12.7-1.85,1.4-3.8,2.1-5.84,1.01-2.91,2.36-5.6,3.78-8.33,1.35-2.6,3.58-3.98,5.8-5.72.95-.74,1.92-1.46,2.92-2.16,6.22-4.33,12.4-8.71,18.55-13.14.81-.58,1.29-1.31,1.25-2.33-.17-3.23-.24-6.57-.2-10.01,0-.16-.07-.23-.23-.23l-7.13.2c-.47.01-.93.17-1.32.44-3.88,2.74-7.3,5.58-11.74,8-2.64,1.37-5.63,2.52-8.98,3.47-.27.08-.54-.08-.62-.35-.03-.1-.02-.21,0-.32.32-.86.71-1.84,1.18-2.68,2.79-4.96,5.09-9.77,6.91-14.44.73-1.88,1.11-3.77,1.12-5.69.02-2.73.06-5.42.11-8.09.04-2.09.43-3.7,1.01-5.62.18-.6-.04-.95-.67-1.04-2.91-.42-6.59-1.21-4.12-5.35,1.55-2.6,3.07-5.21,4.58-7.83.42-.73.81-1.54,1.13-2.43.11-.3.04-.63-.18-.86-1.61-1.63-3.04-3.59-2.01-5.96.83-1.93,1.85-3.71,3.04-5.35.11-.15.1-.3-.01-.44-3.52-4.19-6.04-9.44-7.57-15.77-1.44-5.99-1.26-11.68.54-17.08.74-1.17,2.1-1.6,3.07-.4.44.55.8,1.15,1.07,1.79,1.38,3.32,2.81,6.62,4.29,9.9,1.02,2.26,2.11,4.14,3.75,6.21,1.17,1.48,2.27,2.87,3.3,4.17.29.36.62.41.99.15,1.67-1.15,3.33-1.92,4.95-2.33.14-.03.21-.12.21-.27.03-2.66-.33-5.32-.25-7.84.12-3.96.77-7.78,1.97-11.47.71-2.17,2.92-2.53,4.13-.44.84,1.45,1.56,3.04,2.16,4.76,1.02,2.92,1.98,5.85,2.9,8.79.44,1.4,1.01,2.72,1.71,3.96.23.4.64.64,1.09.64,4.47.03,9.51.32,13.57,1.53,9.71,2.9,17.08,11.16,18.57,21.33.29,2,.14,3.9.1,5.92,0,.36.12.71.35.98,1.73,1.98,3.37,3.89,4.93,5.73,3.36,3.98,7.43,6.78,12.2,8.41,5.61,1.91,12.09.82,17.4-1.23.61-.23,1.29.05,1.55.65,1.35,3.17-3.64,4.71-5.7,5.49-5.48,2.08-11.14,2.56-16.99,1.44-1.44-.28-3.88-1.92-5.94-1.92-.29,0-.33.1-.12.3.59.58,1.35.98,1.99,1.53,1.23,1.07,2.41,2.13,3.55,3.17,5.6,5.14,13.09,5.93,20.27,4.27.27-.06.54-.1.81-.12.9-.06,1.43.72,1.02,1.5-1.14,2.15-4.56,3.87-6.73,4.77-4.18,1.74-9.08,3.17-14.69,4.29-4.28.85-8.47.81-12.76.23-.38-.05-.5.1-.39.46.26.75.73,1.37,1.41,1.87,2.18,1.59,4.43,3.09,6.74,4.5,9.86,6.01,19.46,11.31,28.79,15.91,4.09,2.02,7.39,3.95,9.25,7.9,2.2,4.7,3.64,10.41,5.04,15.71.66,2.49,1.32,4.83,1.97,7.03,1.44,4.84,2.65,9.69,4.07,14.49,2.33,7.88,4.48,15.83,6.44,23.86,1.22,4.94,2.76,9.75,3.51,14.96.57,3.95.03,7.04-1.74,10.61-4.01,8.09-7.93,15.35-11.76,21.79-.07.13-.06.25.03.36,6.84,8.18,12.85,16.97,18.03,26.35.64,1.16,1.04,2.9-.38,3.87-1.96,1.34-4.03,2.47-6.22,3.35-2.58,1.1-5.14,2.18-7.7,3.23-2.22.92-5.88,2.02-10.97,3.3-6.14,1.43-12.65,1.58-18.95,1.78-.59.02-1.11.23-1.57.61-.14.13-.16.35-.03.5l.03.03c4.36,3.87,9.31,7,14.85,9.37,5.72,2.45,11.8,4.44,17.97,5.3,7.19,1,14.33,1.55,21.46,1.28,2.16-.08,4.32-.29,6.48-.62,11.27-1.72,21.82-5.59,31.65-11.63,2.64-1.62,4.98-3.62,7.48-5.45.9-.65,1.92-1.18,3.06-1.59.09-.03.14-.13.11-.22,0-.03-.03-.06-.05-.08-.78-.61-1.56-1.15-2.35-1.63-3.43-2.08-7.03-4.2-10.8-6.38-1.53-.88-2.98-1.89-4.36-3.05-.07-.05-.06-.1.01-.15,2.42-1.33,4.55-2.16,6.39-2.5,11.38-2.08,22.76-2.07,34.49-2.18,1.88-.01,3.76.07,5.65.26ZM453.88,255.39c.03-.12-.05-.25-.17-.28-.01,0-.03,0-.05,0-8.15-.1-15.5-.05-22.05.16-3.87.12-7.77.5-11.68,1.13-.24.04-.25.11-.03.22,1.31.63,2.37,1.64,3.65,2.35,2.06,1.14,4.17,2.27,6.32,3.39,1.86.97,2.89,2.47,3.07,4.49.02.17-.02.34-.11.48-.59.97-1.4,1.88-2.45,2.72-4.1,3.29-8.18,6.13-12.24,8.52-2.94,1.73-5.65,3.07-8.11,4.01-3.97,1.51-8.16,3.48-12.14,4.57-6.08,1.67-11.42,2.68-16.05,3.03-6.05.46-13.03.04-20.94-1.24-.85-.14-1.7-.21-2.57-.21-.43,0-.82.11-1.16.35-1.16.8-1.82,1.9-1.97,3.3-.04.35.11.58.43.7,1.97.71,3.86,1.08,5.67,1.12,1.12.02,2.27.08,3.48.18,7.34.59,14,.51,19.99-.23,10.01-1.25,19.95-4.56,29.81-9.93,2.48-1.35,4.83-2.99,7.23-4.43,3.91-2.36,7.6-5.57,11.04-8.39.66-.53,1.32-.78,1.99-.74.2.02.34.12.4.31l.78,2.3c.04.13,0,.21-.12.25-.06.02-.08.06-.06.13,0,.02.01.05.01.07.06.78.24,1.55.51,2.31.23.61.36,1.27.39,1.97.13,2.8.14,5.54,0,8.25,0,.31.06.33.21.06,1.6-2.75,3.85-4.76,5.57-7.52,3.75-6.01,6.76-11.54,9.03-16.59,1.04-2.3,1.81-4.57,2.32-6.8ZM407.3,434.54c.07-.05.08-.14.04-.22l-2.08-3.4c-.04-.06-.12-.08-.18-.04,0,0,0,0-.01,0-2.31,1.73-4.73,2.78-7.17,4.6-2.09,1.56-4.48,2.75-6.58,4.38-1.6,1.25-3.33,2.12-4.8,3.48-.75.7-1.62,1.31-2.59,1.84-2.35,1.28-4.92,2.96-7.7,5.05-1.07.8-1.94,1.76-3.02,2.53-1.87,1.34-3.72,2.8-5.55,4.37-.57.49-1.19.96-1.86,1.4-2.57,1.7-4.49,3.28-7.66,3.62-2.89.31-6.21.49-9.97.57l-20.9.24c-.39,0-.56.2-.51.59.06.43.12.84.17,1.23.05.39.28.59.67.6l20.2.52c3.93.16,7.87.05,11.79-.34,1.46-.14,2.68-.49,3.66-1.05,5.6-3.21,11.21-7.07,16.8-11.57,1.34-1.09,2.53-2.52,4.06-3.28,2.35-1.16,4.16-2.64,6.3-4,2.3-1.47,4.01-3.12,6.45-4.44,3.59-1.92,7.07-4.15,10.45-6.69ZM391.1,435.12c1.78-1.22,7.94-4.39,7.55-6.97-.32-2.12-1.15-4.35-2.49-6.69-1.58-2.76-4.4-4.54-6.99-6.21-.4-.26-.76-.59-1.08-1.01-1.71-2.27-3.24-4.64-4.59-7.11-.93-1.7-2.05-3.28-3.03-4.93-.11-.2-.22-.19-.33,0-1.76,3.33-2.8,6.58-3.13,9.76-.14,1.32-.69,2.29-1.33,3.4-1.78,3.08-2.64,6.59-4.47,9.65-1.58,2.64-3.77,4.83-5.95,7.02-1.35,1.36-2.35,2.95-3.46,4.49-.21.3-.49.56-.84.8-.09.07-.11.2-.05.29.02.02.04.04.07.06,3.12,1.71,6.46,3.34,9.37,5.41,1.12.8,3.58,2.61,4.86,1.53,1.78-1.5,3.72-2.96,5.82-4.39,3.14-2.13,6.89-2.92,10.06-5.09ZM371.76,449.67c.08-.08.07-.2,0-.28,0,0-.02-.01-.03-.02-2.46-1.57-4.79-3.07-6.99-4.49-1.93-1.25-4.01-2.06-6.24-2.43-1.29-.22-2.44.19-3.43,1.21-1.58,1.64-3.1,3.23-4.55,4.78-.32.35-.71.58-1.13.82-.26.14-.24.25.04.33,2.21.57,4.49,1.27,6.82,2.1,2.65.95,4.45,2.92,6.65,4.46.26.18.62.17.86-.04,1.76-1.46,3.85-3.09,6.28-4.9.62-.45,1.2-.96,1.72-1.54ZM367.33,255.06c.17-.22.18-.44.03-.67l-7.47-11.65c-.28-.43-.66-.56-1.15-.4-1.46.51-2.86,1.12-4.07,2.08-3.5,2.78-6.53,5.74-9.09,8.88-2.64,3.25-5.72,7-10.13,7.57-1.1.14-2.17.22-3.24.24-.31,0-.6.13-.83.34l-4.04,3.89c-.05.06-.05.11,0,.16.06.05.15.08.26.08,3.53.03,7.09.02,10.67,0,.57,0,1.13-.08,1.67-.24,4.7-1.35,9.53-2.72,14.46-4.1,1.64-.45,2.96-1.18,4.42-2,2.6-1.46,5.43-2.5,8.11-3.89.16-.08.29-.18.39-.32ZM362.29,428.45c.78-1.23.93-2.37.46-3.42-2.15-4.83-4.97-9.11-7.79-13.56-.23-.36-.71-.47-1.07-.24,0,0-.02.01-.03.02-5,3.54-10.34,6.87-16.02,10.01-.19.1-.35.07-.47-.1-1.2-1.6-2.02-3.44-3.26-4.93-.79-.95-1.51-1.95-2.15-2.99-3.07-5.02-6.34-10.11-9.79-15.25-3.24-4.83-6.19-9.54-8.85-14.13-1.03-1.78-2.18-3.66-3.46-5.61-1.02-1.57-2.18-3.43-3.49-5.59-3.17-5.24-6.42-10.65-9.77-16.25-3.08-5.15-5.68-9.32-7.8-12.51-1.98-2.99-4.09-6.05-6.33-9.17-.1-.14-.3-.17-.44-.07-.04.03-.07.07-.1.11-1.35,2.77-3.02,5.34-4.42,8.13-4.35,8.73-8.18,15.6-12.21,23.62-3.43,6.82-6.93,13.21-9.63,18.59-5.23,10.42-10.46,20.89-15.7,31.42-1.91,3.83-3.62,7.91-5.87,11.71-1.04,1.76-1.94,3.6-2.8,5.48-.32.68-.79,1.33-1.65,1.29-1.3-.07-2.29-.22-2.95-.45-6.02-2.12-11.86-4.98-17.51-8.57-.11-.07-.25-.04-.32.06-2.42,3.62-5.05,7.16-7.05,11.01-.58,1.12-.69,2.23-.53,3.44.33,2.52.72,5.29.24,7.75-.38,1.98-1.2,4.19-2.46,6.64-.77,1.5-2.01,2.35-3.45,3.11-.12.06-.16.21-.1.33.01.03.03.05.06.07,1.1.92,2.97,2.19,2.16,3.82-.72,1.47-1.42,2.98-2.09,4.54-.73,1.67-1.74,3.02-2.65,4.57-.12.21-.05.48.16.6.04.03.1.05.15.05.33.05.66.08.98.09,11.54.25,24.93.04,37.98.03,25.75-.02,51.72.14,77.57.02,4.39-.02,9.08.42,13.54.02.15,0,.26-.14.25-.29,0,0,0-.02,0-.03-.52-3.15-1.1-7.63-.34-10.91.05-.2.18-.38.36-.48,1.95-1.07,3.7-3.32,5.22-4.99,2.97-3.25,6.41-3.27,10.5-3.46,1.62-.08,3.05-.53,4.09-1.82,3.18-3.94,6.4-7.4,9.65-10.38,1.56-1.42,3.13-2.18,4.38-4,1.48-2.15,3.08-4.59,4.81-7.33ZM357.86,458.47c.07,0,.12-.07.11-.14,0-.03-.01-.06-.04-.08-.97-.87-1.91-1.69-2.84-2.45-2.28-1.86-7.42-1.74-10.1-1.1-3.35.81-6.93,1.34-10.74,1.59-.94.06-1.81.51-2.41,1.24l-.5.61c-.54.66-.39.98.46.97,6.56-.08,12.81-.15,18.74-.19,2.14-.01,4.58-.17,7.33-.45ZM330.73,112.6c.11-.07.14-.22.07-.34-.02-.03-.05-.06-.09-.08-8.98-4.74-17.77-9.56-26.36-14.46-.13-.07-.3-.03-.37.1,0,.02-.02.04-.03.07-1,3.99-1.98,8.04-2.94,12.16-.59,2.54-1.05,5.05-1.8,7.51-.41,1.32.1,3.03,0,4.5-.15,2.08.2,4.12,1.05,6.11.3.7.45,1.44.58,2.19.06.37-.16.71-.52.8l-4.96,1.2c-.31.07-.54.34-.58.66-.19,1.94-.17,4.8-.94,6.58-1.78,4.13-3.13,8.29-4.04,12.48-.84,3.87-1.93,7.51-2.98,11.26-.37,1.3-.55,2.87-.85,3.95-1.31,4.62-2.76,9.25-4.32,13.9-1.43,4.26-2.34,8.5-4.17,12.71-1.25,2.88-2.21,5.83-2.89,8.86-.47,2.12-2.79,3.64-1.58,6.08,3.1,6.23,7.4,11.42,12.92,15.59,4.39,3.32,10.47,4.46,15.91,4.48.21,0,.34-.09.4-.29l1.41-4.4c.05-.14,0-.23-.16-.27-1.36-.3-2.7-.58-4.03-.84-2.38-.47-4.6-1.25-6.96-1.83-2.69-.66-4.71-2.1-6.07-4.31-.09-.15-.08-.3.02-.44l2.03-2.69c.12-.16.27-.18.43-.07.65.43,1.13,1.09,1.75,1.56,1.93,1.45,4.11,2.25,6.52,2.4,1.7.1,3.97.31,5.49-.42,2.64-1.24,4.71-3.26,6.21-6.07.61-1.14,1.55-2.04,2.01-3.18,1.07-2.65,1.45-5.18,1.13-7.59-.15-1.12-.17-2.25-.08-3.41.46-5.65.88-11.32,1.25-17.04.19-2.97.44-6.26.76-9.85.42-4.93.78-9.54,1.05-13.84.13-2.06.83-3.98.91-6.02.15-4.1.45-7.59.93-10.47.49-3.02,1.29-6.22,2.39-9.6,1.88-5.76,4.81-10.86,8.8-15.33.79-.87,1.73-1.62,2.71-2.27ZM321.19,253.16c.17-.21.14-.52-.06-.69-4.26-3.7-8.52-7.17-12.39-11.41-.5-.55-1.16-1.02-1.95-1.41-.34-.16-.75-.02-.91.31-.05.1-.07.21-.07.32.01.39.05.73-.11,1.08-.26.57-.4,1.14-.44,1.71-.11,1.76-.15,3.51-.13,5.26.02,1.64.15,3.37.39,5.19.25,1.88.45,3.88.61,6.01.28,3.62.77,7,1.47,10.14.34,1.5.88,2.86,1.64,4.09.06.1.2.14.3.07.04-.02.08-.07.09-.12.42-1.24,1.33-2.08,1.91-3.24.6-1.2,1.25-2.41,1.71-3.67,1.12-3.06,2.1-5.32,2.95-6.76,1.48-2.5,3.21-4.63,4.99-6.89ZM307.31,278.78c.08-.15.06-.28-.05-.41-3.79-3.99-4.33-8.39-5.06-14.27-.63-5.04-.96-8.41-.98-10.11-.06-4.34-.23-8.66-.53-12.97l-.81-5.65c-.02-.17-.12-.26-.3-.27l-4.6-.06c-1.65.79-3.23,1.81-4.75,3.07-2.13,1.78-3.97,3.56-5.51,5.34-2.18,2.52-4.79,5.06-6.63,7.75-3.34,4.87-6.15,10.16-8.43,15.88-1.26,3.17-2.62,6.36-4.2,9.47-.39.77-1.08,1.14-2.07,1.13-.16,0-.32-.03-.47-.1-2.3-1.05-.94-2.8-.32-4.27.28-.64.55-1.32.83-2.05,2.29-5.92,4.52-10.76,6.67-14.52,1.07-1.85,2.2-3.77,3.39-5.75.96-1.59,1.98-2.97,3.05-4.16,1.57-1.72,3.04-3.45,4.42-5.17.6-.74,1.3-1.47,2.1-2.19,1.81-1.61,3.41-3.5,5.26-4.95,1.04-.82,2.19-1.6,3.44-2.34.06-.03.08-.11.04-.17-.01-.02-.03-.04-.06-.05-2.23-.79-4.53-1.41-6.58-2.65-2.7-1.63-5.16-3.61-7.4-5.92-.1-.1-.26-.13-.4-.05-.42.25-.84.52-1.24.8-2.17,1.55-4.46,3.17-6.86,4.86-1.85,1.31-3.98,2.67-6.38,4.06-.83.48-1.62.29-2.38-.59-.11-.12-.17-.27-.2-.42-.15-.97.13-1.71.84-2.22,3.17-2.28,6.25-4.47,9.26-6.57.38-.26.34-.42-.11-.48-.19-.02-.38-.03-.57-.02-3.22.16-6.47.47-9.73.93-1.6.23-3.23.34-4.89.34-2.38,0-4.53.16-6.44.48-1.18.2-2.15-.42-3.36-.08-.84.23-1.72.33-2.64.3-.21,0-.33.1-.34.32-.11,1.91-.26,3.9-.46,5.97-.13,1.34-.12,3.82.03,7.43.07,1.83-.11,3.63-.21,5.46,0,.65-.07,1.29-.19,1.92-.16.83-.24,1.46-.25,1.88,0,1.13.07,2.25.22,3.38-.04,4.93-.42,9.83-1.14,14.72-.1.74.06.81.5.21,2.38-3.24,4.06-7.19,6.14-11.07,1.17-2.17,4.44-.51,3.3,1.75-3.5,6.94-6.74,13.31-9.74,19.11-.65,1.25-1.78,1.98-2.32,3.29-1.71,4.19-3.3,8.22-4.78,12.09-.96,2.52-1.97,4.78-3.02,6.77-1.19,2.26-2.29,4.45-3.29,6.59-6.6,14.09-13.19,27.71-19.58,41.73-.79,1.72-2.07,3.6-2.99,5.42-2.47,4.84-5.04,9.65-7.73,14.43-.75,1.34-1.18,2.8-2.08,4.06-.26.37-.48.77-.67,1.22-1.58,3.76-3.62,7.55-5.66,11.44-.23.43-.45.88-.68,1.35-2.35,4.86-4.72,9.73-7.09,14.61-.09.19-.03.31.15.38,1.96.73,3.74,1.66,5.32,2.77,1.32.93,2.68,1.78,4.07,2.53,4.55,2.47,9.25,5.04,14.14,7.7.38.21.85.07,1.05-.31,0,0,.01-.02.02-.04,1.75-3.74,3.62-6.97,5.6-9.69,1.56-2.14,3.08-4.43,4.56-6.87.65-1.07,1.53-1.37,2.65-.91.17.07.3.17.41.3.57.72.65,1.71.2,2.52-3.11,5.53-6.46,11.39-10.04,17.57-.08.15-.03.34.12.43,0,0,.02,0,.03.01,1.5.6,2.5,1.85,3.82,2.74,5.21,3.51,10.69,7.21,16.44,11.1.11.07.26.04.34-.07,0,0,0,0,0-.02,1.6-3.01,3-5.73,4.19-8.15,4.23-8.55,8.4-16.72,12.5-24.52.88-1.67,1.71-3.28,2.51-4.84,10.98-21.31,22.45-43.27,34.41-65.89,1.51-2.85,2.98-5.79,4.41-8.82,3.62-7.64,7.11-15.04,10.49-22.2.92-1.94,1.93-3.75,3.03-5.45,2.11-3.24,4.19-6.66,6.23-10.27ZM300.02,95.69c.05-.22-.01-.45-.19-.6-2.19-1.92-4.36-3.81-6.49-5.67-.47-.41-1.01-.77-1.6-1.07-.12-.06-.28-.01-.35.11,0,.02-.02.04-.02.06-.46,2.33-.96,4.5-1.49,6.49-1.28,4.84-2.4,9.15-3.34,12.93-.19.76-.04,1.47-.33,2.26-1.61,4.37-1.28,9.92-.52,14.41.61,3.6,1.26,7.33,1.97,11.19.04.2-.1.4-.3.43h-.02l-8.31.97c-.47.05-.77.31-.87.78-1.16,4.89-1.9,9.52-2.23,13.91-.15,1.99-.4,3.77-.76,5.38-2.65,11.88-3.59,24.21-3.02,36.46.04.84-.04,2.11.24,3.18.12.44.26.45.42.02,1.82-4.76,3.1-9.45,3.84-14.05.1-.61.29-1.2.57-1.76.29-.56.51-1.15.69-1.77.77-2.66,2.13-5.05,2.93-7.72.87-2.94,1.75-5.72,2.55-8.74.44-1.65.9-3.27,1.38-4.87,1.16-3.84,2.44-10.13,4-15.11,1.02-3.27,2.38-6.39,2.14-9.99-.09-1.44-1.13-2.48-1.67-3.77-.14-.33-.03-.51.33-.54l5.1-.43c.6-.05.87-.38.81-.97-.09-.93-.37-1.79-.35-2.74.03-2.21.16-4.58.37-7.09.14-1.6.73-3.04.99-4.58,1.1-6.35,2.28-12.06,3.53-17.13ZM293.06,59.18c1.47-4.61,2.5-15.46-5.54-15.18-1.3.05-2.61.59-3.93,1.62-1.71,1.35-3.61,3.41-3.86,5.63-.55,4.94-1.05,9.85-1.73,14.75-.08.58-.06,1.25.06,2.02.03.18.12.3.29.36,4.29,1.6,9.33-.77,11.78-4.22,1.08-1.53,2.37-3.17,2.93-4.96ZM287.41,87.94c.36-1.8.37-3.65.02-5.55-.2-1.12-.3-2.75-1.92-2.53-2.43.33-4.17,1.31-5.22,2.97-1.27,2-2.14,4.17-3.36,6.04-2.05,3.13-3.9,6.33-6.07,9.39-2.3,3.26-4.45,6.42-6.43,9.47-1.6,2.47-3.5,4.65-5.03,7.14-.04.07-.02.15.04.19,0,0,.02,0,.02,0,1.59.6,3.18,1.18,4.77,1.73.27.09.7.1,1.29.03,1.11-.42,2.22-.88,3.34-1.39.98-.43,3.51-.85,7.59-1.25.37.25.82.28,1.36.08.42-.15.74-.43.98-.86,1.51-2.73,2.78-5.72,3.8-8.98.55-1.75,1.18-3.56,1.9-5.44,1.01-2.64,1.98-6.32,2.92-11.05ZM276.69,118.9c.08-.18.02-.26-.18-.25-3.47.27-5.86.57-7.18.9-.56.14-1.33.55-2.31,1.22-1.01.69-2.78.73-3.98.3-1.79-.64-3.76-1-5.91-1.09-.27,0-.49.19-.51.46-.37,5.53.25,10.51.45,15.77.13,3.35.52,6.82,1.18,10.42.14.76.32,1.54.54,2.34.04.15.19.24.34.2.05-.01.1-.05.14-.09,1.45-1.7,2.33-3.68,3.62-5.49,5.18-7.33,9.78-15.56,13.81-24.68ZM272.46,218.77c.08,0,.15-.07.15-.15,0-.03,0-.06-.02-.08l-3.64-5.59s-.08-.07-.14-.07l-7.08.28c-.07,0-.13.06-.14.13l-.97,5.44c-.01.08.04.17.12.18h.02l11.7-.13ZM272.53,33.34c1.22-3.65-.95-6.55-4.24-7.71-.24-.08-.34,0-.3.25.31,2.01,1,5.06.21,6.84-.5,1.14-1.22,2.32-2.12,3.54-1.51,2.03-4.85,1.46-7.08.38-3.46-1.69-4.84-8.23-5.34-11.69-.02-.19-.21-.33-.4-.3-.01,0-.03,0-.05,0-3.08.9-6.43,3.6-8.44,6.51-.67.97-1.36,1.88-2.08,2.73-1.65,1.95-2.7,4.54-3.96,6.78-.33.59-.18.78.46.56.46-.16.93-.23,1.41-.23,7.9.08,15.65.14,23.27.18.17,0,.31.05.44.16.85.69,1.61,1.09,2.27,1.19,1.57.25,3.29.51,5.15.79.28.04.33-.04.17-.27-.99-1.35-1.53-2.53-1.02-4.31.52-1.83,1.07-3.63,1.66-5.39ZM265.77,32.69c.21,0,.31-.09.3-.3-.05-1.61-.43-3.14-1.14-4.61-1.89-3.92-3.65-8.01-5.27-12.27-.99-2.59-1.73-5.28-2.23-8.07-.1-.58-.26-.6-.46-.03-.28.79-.43,1.66-.45,2.58-.13,6.22.03,12.52,2.34,18.25,1.04,2.56,2.83,3.96,5.39,4.19.53.05,1,.24,1.53.25ZM258,213.54c.02-.19-.06-.29-.25-.3-.54-.03-1.09,0-1.66.07-4.6.6-9.03.97-13.3,1.09-.14,0-.23.08-.25.22-.21,1.88-.64,3.75-1.29,5.63-.04.14.03.29.16.34.03,0,.07.01.1,0l6.95-.57c.23.09.41.09.52,0l.99-.04c2.51.28,4.98.16,7.4-.37l.62-6.07ZM247.63,135.8c.02-.17-.06-.25-.23-.24l-5.63.6c-.23.02-.43.19-.5.41-.63,1.96-1.05,3.92-1.28,5.9-.46,4.05-1.05,7.93-1.76,11.65-.6,3.15-1.05,6.12-1.34,8.89-.41,3.83-.84,7.66-1.3,11.48-.13,1.1.04,2.23-.08,3.32-.48,4.46-1.06,8.93-1.2,13.5-.22,7.69-.45,15.53-.7,23.51-.13,4.52-.36,8.67-.68,12.46-.43,5.1-.89,10.25-1.39,15.45-.45,4.8-.45,9.84-.57,14.47-.02.65.12.69.41.1l5.73-11.49c.15-.31.24-.65.25-.99.16-5.82.29-11.28.41-16.4.07-3.13-.2-6.42.09-9.52.7-7.22,1-14.83,2.22-22.1,1.32-7.86,1.99-15.93,2.69-23.86.28-3.11.7-6.37,1.25-9.8,1.49-9.14,2.7-18.25,3.62-27.34ZM243.47,26.58c.19-.28.17-.66-.05-.92-1.65-1.94-3.73-3.69-4.94-5.92-.68-1.26-1.3-2.67-1.84-4.22-.19-.54-.54-.83-.76-1.37-.61-1.5-1.26-2.97-1.96-4.43-.22-.46-.36-.44-.42.07-.19,1.84-.13,3.6.17,5.27.55,2.99,1.75,6.7,3.62,11.14.57,1.35,1.53,2.35,2.11,3.64.16.34.55.49.89.34.07-.03.13-.07.19-.13,1.17-1.11,2.16-2.27,2.98-3.47ZM200.02,431.91c.6-1.25.56-2.4-.13-3.44-.75-1.12-1.61-2.36-2.59-3.72-.82-1.13-1.78-2.13-2.9-2.99-2.81-2.16-5.41-4.12-7.82-5.86-.31-.22-.75-.18-1.01.09-1.35,1.43-2.59,2.91-3.71,4.42-2.52,3.41-5.16,5.31-9.38,6.41-3.53.93-7.22,1.56-11.05,1.9-.14.01-.24.14-.22.28,0,.02,0,.04,0,.05.7,2.08,1.75,3.99,2.39,6.06.67,2.15,1.28,4.43,1.84,6.85.18.77.65,1.25,1.39,1.44,5.91,1.56,11.71,4.12,17.4,7.67,1.93,1.21,4.3,2.79,7.11,4.73.18.12.42.11.57-.04,1.59-1.48,2.97-3.04,4.15-4.68,1.8-2.5,2.13-5.07,1.55-8.03-.85-4.32.61-7.41,2.42-11.15ZM192.99,462.27c.1-.2.03-.44-.16-.57-2.4-1.53-4.97-2.77-7.43-4.17-2.72-1.55-5.59-3.13-8.61-4.74-4.1-2.18-8.97-3.7-13.37-5.93-4.55-2.31-9.38-4.02-14.18-5.73-1.59-.56-3.04-1.49-4.44-2.47-1.92-1.35-4.1-1.95-6.22-2.88-.98-.43-1.93-.91-2.83-1.42-3.7-2.12-7.51-4.07-11.46-5.82-2.88-1.28-5.41-2.96-8.29-4.17-.29-.12-.62-.05-.84.17-.71.74-1.32,1.62-1.82,2.63-.05.1,0,.23.1.28.01,0,.03.01.05.01.58.1,1.11.26,1.58.49,7.04,3.39,14.01,6.77,21.02,10.51,9.12,4.85,17.33,8.3,26.16,12.36,4.33,1.99,9.36,3.48,13.68,5.93,2.88,1.63,5.78,3.21,8.7,4.74,2.27,1.18,4.29,2.57,6.44,3.85.21.13.37.08.47-.14l1.44-2.94ZM183.97,234.84c.64-2.45.61-4.98-.1-7.61-.96-3.56-5.01-6.41-8.03-8.09-.95-.53-1.82-.43-2.61.29-2.75,2.53-5.37,4.85-7.74,7.77-1.86,2.28-3.71,4.57-5.54,6.85-1.46,1.83-2.98,4.33-4.57,7.51-.91,1.83-1.46,3.62-1.66,5.38-.6,5.46-.58,10.77,1.36,15.55.54,1.33,1.1,2.7,1.67,4.1.25.59.48,1.19.72,1.79.37.93.83,1.74,1.38,2.44.82,1.02,2.45,1,2.66-.61.12-.87.12-1.71,0-2.51-.32-2.27-.91-4.57-1.79-6.91-1.25-3.34-1.68-7.11-1.3-11.32.42-4.61,5.29-6.77,8.67-8.88,1.88-1.18,1.92-3,2.34-4.95.31-1.41,2.07-2,2.83-.59,1.67,3.05-.42,9.26-1.85,12.18-.88,1.8-1.72,3.58-2.5,5.36-.98,2.21.65,4.32,3.05,3.1,5.73-2.91,4.68-10.45,8.6-14.76,1.58-1.73,3.81-3.84,4.4-6.09ZM161.64,443.12c0-.6-.11-1.21-.33-1.81-1.19-3.39-2.4-6.83-3.66-10.33-.88-2.47-2.29-4.63-5.15-4.67-2.61-.04-5.12-.07-7.55-.09-.2,0-.23.07-.1.21.85.93,1.48,2.18,1.88,3.75.53,2.07,1.13,4.19,1.77,6.39.21.71.61,1.24,1.19,1.58,2.85,1.67,6.73,3.4,11.65,5.17.2.07.29,0,.29-.2ZM142.48,432.73s.03-.09.02-.14c-.11-2.28-1.14-5.06-3.5-5.91-3.71-1.33-6.65-2.65-8.81-3.95-2.93-1.76-5.89-2.85-9.21-1.48-.2.08-.21.19-.04.32,1.58,1.22,3.17,2.18,4.78,2.9,3.16,1.4,6.59,2.98,9.49,4.97,2.11,1.45,4.5,2.4,6.86,3.45.15.07.33,0,.4-.15Z"/>
        <path class="cls-2" d="M232.87,164.91c-.01.15-.13.26-.28.27h-.19s-.09-.02-.09-.07c-.23-3.7-.41-7.58-.53-11.64-.07-2.42.19-6.91.78-13.45.28-3.09.37-6.39.51-9.55.1-2.11-.86-2.44-1.86-3.94-.08-.13-.22-.23-.37-.27-.33-.1-.66.05-.81.35l-.32-.16c.15-.25.3-.48.46-.71.33-.45.57-.97.75-1.54.73-2.4,2.79-3.11,4.51-4.55.89-.75,1.7-1.5,2.72-2.08,1.19-.68,2.37-1.49,3.55-2.42.82-.64,2.12-1.39,3.92-2.26.24-.11.32-.04.24.21-1.18,3.78-3.04,6.88-4.52,10.44-1.49,3.59-3.85,7.11-5.87,10.32-.29.46-.49.98-.6,1.57-.05.29.12.56.4.62l2.06.5c.18.05.26.16.22.35-1.43,7.11-2.65,13.72-3.64,19.8-.41,2.52-.75,5.26-1.02,8.21Z"/>
        <path class="cls-2" d="M208.14,189.44c-.1-.04-.21-.06-.32-.04l-.13-1.21c2.25-.25,4.51-.27,6.67-.5.8-.09,1.33-.49,1.6-1.22.07-.17.02-.31-.14-.41-1.13-.7-3.63-2.43-3.71-3.94-.16-3.06-.3-6.38.92-9.28,3.62-8.54,6.82-17.55,10.23-27.86,1.75-5.33,3.73-10.8,5.36-16.01.3-.93.66-1.77,1.09-2.51l.32.16s-.03.07-.04.1c-.44,1.43-.77,3.1-.98,5-.65,5.96-.57,11.44-.8,17.27-.21,5.45-.42,10.88-.64,16.27-.11,2.54-.64,5.04-.74,7.59-.15,3.78-.52,7.71-1.11,11.8-.46,3.2-1.57,7.16-2.11,10.83.12,1,.02,2,.19,3.01.43,2.54.92,5.66.21,8.15,0,.03-.02.07-.04.09-.09.11-.25.13-.37.03-1.13-.92-1.83-1.85-2.52-3.27-.73-1.49-1.51-2.98-2.35-4.5-2.28-4.32-5.81-7.51-10.58-9.58Z"/>
        <path class="cls-2" d="M207.75,189.41c-.33.08-.52.42-.43.74.4,1.51,1.08,2.96,2.23,4.11,2.58,2.55,3.95,5.68,5.53,8.76,1.65,3.21,2.28,6.62,1.88,10.22-.1.96-.35,1.67-.96,2.42-1.48,1.83-2.9,3.57-4.25,5.2-.77.93-1.94,1.93-3.51,2.99-1.3.88-2.37,1.79-3.2,2.74-1.57,1.79-2.99,3.65-4.27,5.56-.02.03-.04.06-.07.08-.13.09-.31.05-.4-.08-1.62-2.4-2.86-4.95-4.63-7.2-2.4-3.06-4.91-5.94-7.52-8.62-2.31-2.37-5.31-4.17-8.11-6-.16-.11-.17-.22-.02-.35,1.44-1.21,2.87-2.5,4.28-3.89,1.38-1.36,3.09-2.26,4.45-3.72.74-.79,1.54-1.45,2.4-1.99,1.45-.9,2.4-2.26,3.79-3.29,2.11-1.54,3.88-3.34,5.94-4.94,1.8-1.4,2.48-3.24,5.09-3.71.58-.1,1.16-.18,1.73-.25l.13,1.21s-.05,0-.08.01Z"/>
        <path class="cls-3" d="M199.88,428.47c.69,1.04.74,2.19.13,3.44-1.81,3.75-3.27,6.83-2.42,11.15.58,2.96.25,5.53-1.55,8.03-1.18,1.64-2.56,3.2-4.15,4.68-.15.15-.39.16-.57.04-2.81-1.95-5.18-3.53-7.11-4.73-5.68-3.55-11.48-6.11-17.4-7.67-.74-.2-1.21-.68-1.39-1.44-.56-2.42-1.18-4.7-1.84-6.85-.64-2.08-1.69-3.98-2.39-6.06,0-.01,0-.03,0-.05-.01-.14.08-.26.22-.28,3.83-.34,7.52-.97,11.05-1.9,4.22-1.1,6.86-3,9.38-6.41,1.12-1.52,2.36-2.99,3.71-4.42.27-.28.7-.32,1.01-.09,2.41,1.74,5.01,3.7,7.82,5.86,1.12.86,2.08,1.86,2.9,2.99.98,1.36,1.84,2.6,2.59,3.72ZM190.75,436.32c1.45-2.15,1.71-4.66,1.15-7.19-.07-.31-.34-.52-.65-.53-2.11-.02-2.31,2.27-2.84,3.75-1.33,3.75-3.86,5.96-7.61,6.62-.33.06-.43.25-.33.56.35,1.04.85,1.9,2.02,2.16,4.32.97,6.28-2.41,8.27-5.38Z"/>
        <path class="cls-1" d="M191.9,429.12c.56,2.53.3,5.04-1.15,7.19-1.99,2.96-3.95,6.35-8.27,5.38-1.17-.26-1.67-1.12-2.02-2.16-.1-.31,0-.5.33-.56,3.75-.66,6.28-2.87,7.61-6.62.53-1.48.73-3.78,2.84-3.75.32,0,.58.22.65.53Z"/>
        <path class="cls-3" d="M183.86,227.23c.71,2.63.75,5.16.1,7.61-.59,2.25-2.83,4.36-4.4,6.09-3.92,4.31-2.87,11.85-8.6,14.76-2.4,1.22-4.03-.89-3.05-3.1.78-1.78,1.62-3.56,2.5-5.36,1.43-2.92,3.52-9.13,1.85-12.18-.76-1.4-2.52-.82-2.83.59-.42,1.95-.46,3.77-2.34,4.95-3.38,2.11-8.25,4.27-8.67,8.88-.38,4.21.05,7.99,1.3,11.32.87,2.34,1.47,4.64,1.79,6.91.11.8.11,1.64,0,2.51-.21,1.61-1.84,1.63-2.66.61-.56-.7-1.02-1.51-1.38-2.44-.24-.6-.47-1.2-.72-1.79-.57-1.39-1.13-2.76-1.67-4.1-1.94-4.78-1.96-10.08-1.36-15.55.2-1.75.75-3.55,1.66-5.38,1.58-3.18,3.1-5.68,4.57-7.51,1.83-2.28,3.68-4.57,5.54-6.85,2.38-2.92,4.99-5.24,7.74-7.77.79-.72,1.66-.82,2.61-.29,3.02,1.68,7.07,4.53,8.03,8.09Z"/>
        <path class="cls-1" d="M166,273.19c.58.21.6.45.05.73-.21.11-.43.15-.69.11-.17-.02-.21-.11-.11-.25.33-.45.58-.65.75-.59Z"/>
        <path class="cls-2" d="M161.35,443.32c-4.92-1.77-8.8-3.5-11.65-5.17-.58-.34-.98-.87-1.19-1.58-.65-2.19-1.24-4.32-1.77-6.39-.41-1.58-1.03-2.83-1.88-3.75-.13-.14-.1-.21.1-.21,2.43.02,4.95.05,7.55.09,2.86.04,4.26,2.2,5.15,4.67,1.25,3.49,2.47,6.94,3.66,10.33.22.61.33,1.21.33,1.81,0,.21-.09.28-.29.2Z"/>
        <path class="cls-3" d="M142.5,432.59s0,.1-.02.14c-.07.15-.25.22-.4.15-2.36-1.05-4.75-2-6.86-3.45-2.91-1.99-6.33-3.57-9.49-4.97-1.61-.71-3.21-1.68-4.78-2.9-.17-.13-.16-.24.04-.32,3.32-1.37,6.28-.29,9.21,1.48,2.16,1.3,5.1,2.62,8.81,3.95,2.36.84,3.39,3.63,3.5,5.91Z"/>
        <path class="cls-2" d="M113.35,427.17c.5-1.02,1.11-1.9,1.82-2.63.22-.22.55-.29.84-.17,2.88,1.21,5.41,2.89,8.29,4.17,3.94,1.75,7.76,3.7,11.46,5.82.9.51,1.84.99,2.83,1.42,2.11.93,4.29,1.52,6.22,2.88,1.39.98,2.85,1.91,4.44,2.47,4.79,1.71,9.62,3.42,14.18,5.73,4.41,2.23,9.28,3.75,13.37,5.93,3.02,1.61,5.89,3.19,8.61,4.74,2.47,1.41,5.03,2.65,7.43,4.17.19.12.26.37.16.57l-1.44,2.94c-.1.22-.26.27-.47.14-2.15-1.28-4.17-2.67-6.44-3.85-2.92-1.53-5.82-3.11-8.7-4.74-4.32-2.45-9.34-3.94-13.68-5.93-8.83-4.06-17.05-7.51-26.16-12.36-7.02-3.74-13.98-7.12-21.02-10.51-.47-.23-.99-.39-1.58-.49-.02,0-.04,0-.05-.01-.1-.05-.15-.18-.1-.28Z"/>
        <path class="cls-1" d="M105.29,474.83c.14,1.34-.83,2.55-2.17,2.69l-3.36.36c-1.34.14-2.55-.83-2.69-2.17l-.04-.34c-.14-1.34.83-2.55,2.17-2.69l3.36-.36c1.34-.14,2.55.83,2.69,2.17l.03.34Z"/>
      </g>
    </g>
  </g>
</svg>