<?xml version="1.0" encoding="UTF-8"?>
<svg id="Capa_2" data-name="Capa 2" xmlns="http://www.w3.org/2000/svg" viewBox="0 0 964.37 561.83">
  <defs>
    <style>
      .cls-1 {
        fill: #ecdba5;
      }
    </style>
  </defs>
  <g id="Capa_1-2" data-name="Capa 1">
    <g>
      <path class="cls-1" d="M387.01,76.17c.43-.21.57-.78.43-1.71-.14-.92-.46-2.04-.96-3.36-.5-1.31-1.12-2.79-1.86-4.42-.75-1.64-1.55-3.27-2.4-4.9l-7.04-13.75h-9.06v10.02c0,1.64.02,3.41.05,5.33.04,1.92.12,3.75.27,5.49.14,1.74.32,3.29.53,4.64.21,1.35.46,2.24.75,2.66v.53h-24.52v-.53c.36-.43.62-1.31.8-2.66.18-1.35.34-2.9.48-4.64.14-1.74.23-3.57.27-5.49.04-1.92.05-3.69.05-5.33V20.73c0-1.64-.02-3.41-.05-5.33-.04-1.92-.13-3.75-.27-5.49-.14-1.74-.3-3.29-.48-4.64-.18-1.35-.44-2.24-.8-2.66v-.53h37.95c4.62,0,8.71.6,12.26,1.81,3.55,1.21,6.54,2.86,8.96,4.96,2.42,2.1,4.23,4.55,5.44,7.36,1.21,2.81,1.81,5.78,1.81,8.9,0,10.52-4.76,17.45-14.29,20.79l7.36,14.29c.92,1.78,1.86,3.59,2.82,5.44.96,1.85,1.9,3.52,2.83,5.01.92,1.49,1.77,2.74,2.56,3.73.78.99,1.42,1.6,1.92,1.81v.53h-25.8v-.53ZM378.91,32.03c5.9,0,8.85-2.38,8.85-7.14s-2.95-6.82-8.85-6.82h-12.79v13.97h12.79Z"/>
      <path class="cls-1" d="M554.03,76.17c.29-.36.53-1.05.75-2.08.21-1.03.37-2.49.48-4.37.11-1.88.19-4.23.27-7.04.07-2.81.11-6.16.11-10.08v-26.44c0-3.98-.04-7.37-.11-10.18-.07-2.81-.16-5.14-.27-6.98-.11-1.85-.26-3.29-.48-4.32-.21-1.03-.46-1.72-.75-2.08v-.53h22.92l23.88,42.75v-18.66c0-3.98-.04-7.37-.11-10.18-.07-2.81-.16-5.14-.27-6.98-.11-1.85-.26-3.29-.48-4.32-.21-1.03-.46-1.72-.74-2.08v-.53h24.52v.53c-.29.36-.53,1.05-.74,2.08-.21,1.03-.37,2.47-.48,4.32-.11,1.85-.19,4.18-.26,6.98-.07,2.81-.11,6.2-.11,10.18v26.44c0,3.91.03,7.27.11,10.08.07,2.81.16,5.15.26,7.04.11,1.88.27,3.34.48,4.37.21,1.03.46,1.72.74,2.08v.53h-22.92l-23.88-42.75v18.66c0,3.91.04,7.27.11,10.08.07,2.81.16,5.15.27,7.04.11,1.88.27,3.34.48,4.37.21,1.03.46,1.72.75,2.08v.53h-24.52v-.53Z"/>
      <g>
        <path class="cls-1" d="M177.15,175.98l-25.37,97.62-75.66-73.1c-6.27,7.27-8.93,15.44-7.99,24.52.31,3.94,1.41,8.17,3.29,12.71,1.88,4.54,4.93,9.39,9.16,14.53,4.23,5.15,9.94,10.67,17.15,16.57,7.2,5.9,16.13,12.03,26.78,18.39,18.48,10.6,31.87,23.09,40.18,37.46,8.3,14.38,12.45,32.01,12.45,52.9,0,11.51-1.1,21.65-3.29,30.42-2.19,8.78-5.01,16.5-8.46,23.16-3.45,6.66-7.52,12.34-12.22,17.03-4.7,4.7-9.4,8.7-14.1,12.03-11.28,7.27-23.97,11.81-38.06,13.62L0,444.78l25.37-97.63,75.66,73.11c6.26-7.27,9.08-15.44,8.46-24.52-.31-3.93-1.41-8.18-3.29-12.71-1.88-4.54-5.01-9.46-9.4-14.76-4.39-5.29-10.11-10.82-17.15-16.57-7.05-5.75-16.06-11.81-27.02-18.16-18.49-10.59-31.88-23.08-40.18-37.46-8.3-14.38-12.45-32.01-12.45-52.9,0-11.5,1.1-21.64,3.29-30.42,2.19-8.78,5.09-16.49,8.69-23.16,3.6-6.65,7.67-12.41,12.22-17.25,4.54-4.84,9.16-8.78,13.86-11.81,11.28-7.27,23.97-11.8,38.06-13.62l101.03,29.06Z"/>
        <path class="cls-1" d="M340.64,149.84l48.16,316.62h-72.24s-6.24-55.3-6.24-55.3l-45.93-9.36-7.58,64.66h-72.24s48.16-316.62,48.16-316.62l53.96,6.69,53.96-6.69ZM303.18,349.62l-16.5-140.92-15.61,134.68,32.11,6.24Z"/>
        <path class="cls-1" d="M520.02,258.09h69.29s-15.16,78.15-15.16,78.15l-54.13-10.7v219.8s-77.71,16.49-77.71,16.49v-236.29s-52.08,10.32-52.08,10.32l-15.16-77.77h67.25s0-132.26,0-132.26l77.71-4.46v136.72Z"/>
        <path class="cls-1" d="M677.7,156.53l53.96-6.69,48.16,316.62h-72.24l-7.58-64.66-45.93,9.36-6.24,55.3h-72.24l48.16-316.62,53.96,6.69ZM727.64,91.86l-62.43,44.6,8.92-49.05,53.51,4.46ZM693.3,343.38l-15.61-134.68-16.5,140.92,32.11-6.24Z"/>
        <path class="cls-1" d="M964.37,154.3v312.16h-72.24v-48.16l-52.17-164.55,16.5,212.71h-72.24V154.3h72.24l47.27,149.39-11.59-149.39h72.24Z"/>
      </g>
      <path class="cls-1" d="M517.32,23.72l-.02-.04c-1.04-2.7-1.58-5.57-1.58-8.47V0s-.79,1.42-.79,1.42c-1.38,2.48-2.98,4.82-4.78,6.98-.94,1.13-2.64,1.32-3.8.41-2.57-2.01-5.46-3.68-8.71-4.98-4.69-1.88-9.88-2.83-15.57-2.83s-10.75.94-15.4,2.83c-3.22,1.3-6.09,2.97-8.65,4.98-1.16.9-2.87.72-3.8-.41-1.81-2.18-3.42-4.53-4.81-7.03l-.76-1.37v15.22c0,2.89-.54,5.76-1.58,8.46v.04c-1.83,4.69-2.73,9.88-2.73,15.57s.91,10.89,2.72,15.62c1.81,4.73,4.37,8.78,7.67,12.15,3.31,3.38,7.29,6.01,11.94,7.89,4.65,1.88,9.79,2.82,15.4,2.82s10.88-.94,15.57-2.82c4.69-1.88,8.69-4.51,11.99-7.89,3.31-3.38,5.86-7.43,7.68-12.15,1.81-4.73,2.72-9.93,2.72-15.62s-.91-10.87-2.72-15.57ZM497.01,47.54c-.78,2.52-1.86,4.67-3.25,6.45-1.39,1.78-3.07,3.16-5.06,4.16-1.99,1-4.19,1.49-6.61,1.49s-4.49-.5-6.45-1.49c-1.96-.99-3.63-2.38-5.01-4.16s-2.47-3.93-3.25-6.45c-.78-2.52-1.17-5.28-1.17-8.26s.39-5.72,1.17-8.21c.78-2.49,1.86-4.6,3.25-6.34,1.39-1.74,3.06-3.11,5.01-4.1,1.95-1,4.1-1.49,6.45-1.49s4.62.5,6.61,1.49c1.99.99,3.68,2.36,5.06,4.1,1.39,1.74,2.47,3.86,3.25,6.34.78,2.49,1.17,5.22,1.17,8.21s-.39,5.74-1.17,8.26Z"/>
    </g>
  </g>
</svg>